<svg xmlns="http://www.w3.org/2000/svg" viewBox="0 0 407.05 222.65"><g opacity="0.4"><polygon points="84.46 61.98 75.17 33.31 83.4 18.7 84.46 61.98" fill="#43687a" opacity="0.1"/><polygon points="64.2 79.21 70.45 77.25 57.91 39.02 64.2 79.21" fill="#43687a" opacity="0.2"/><polygon points="106.76 12.15 95.84 27.97 83.81 18.61 106.76 12.15" fill="#43687a" opacity="0.3"/><polygon points="169.82 1.31 148.32 19.37 142.48 9.54 169.82 1.31" fill="#43687a" opacity="0.4"/><polygon points="43.7 37.69 21.4 62.78 43.18 52.12 43.7 37.69" fill="#43687a" opacity="0.1"/><polygon points="80.27 70.85 21.26 62.78 79.41 52.56 80.27 70.85" fill="#43687a" opacity="0.2"/><polygon points="57.74 39.51 56.11 65.5 99.73 55.94 57.74 39.51" fill="#43687a" opacity="0.3"/><polygon points="26.64 15.12 43.97 18.7 9.91 21.69 26.64 15.12" fill="#43687a" opacity="0.3"/><polygon points="50.34 81.5 45.16 93.32 35.07 96.77 50.34 81.5" fill="#43687a" opacity="0.4"/><polygon points="64.28 92.92 68.67 88.58 76.03 96.37 64.28 92.92" fill="#43687a" opacity="0.4"/><polygon points="54.52 27.66 67.27 18.9 57.71 38.42 54.52 27.66" fill="#43687a" opacity="0.4"/><polygon points="105.7 147.48 81.94 119.74 73.57 153.59 105.7 147.48" fill="#43687a" opacity="0.4"/><polygon points="117.65 150.98 81.94 119.74 91.56 149.98 117.65 150.98" fill="#43687a" opacity="0.3"/><polygon points="89.24 213.33 97.5 159.79 104.96 161.72 89.24 213.33" fill="#43687a" opacity="0.3"/><polygon points="36.4 26.67 83.4 18.7 75.17 33.31 36.4 26.67" fill="#43687a" opacity="0.3"/><polygon points="117.12 4.9 127.03 1.01 128.8 10.21 117.12 4.9" fill="#43687a" opacity="0.1"/><polygon points="56.16 65.41 29.13 90.8 43.37 52.16 56.16 65.41" fill="#43687a" opacity="0.2"/><polygon points="79.41 52.56 67.47 47.98 100.3 47.8 79.41 52.56" fill="#43687a" opacity="0.3"/><polygon points="81.27 159.7 83.4 179.88 92.16 169.79 81.27 159.7" fill="#43687a" opacity="0.4"/><polygon points="121.1 166.6 105.7 147.48 111.81 173.24 121.1 166.6" fill="#43687a" opacity="0.4"/><polygon points="58.86 94.99 57.06 102.08 29.38 90.89 58.86 94.99" fill="#43687a" opacity="0.1"/><polygon points="174.74 84.55 185.89 103.14 154.56 95.97 174.74 84.55" fill="#43687a" opacity="0.3"/><polygon points="174.07 41.41 181.24 57.74 182.84 45.92 174.07 41.41" fill="#43687a" opacity="0.4"/><polygon points="220.28 47.51 227.31 40.74 203.55 51.23 220.28 47.51" fill="#43687a" opacity="0.2"/><polygon points="206.87 150.4 205.8 125.98 236.07 157.31 206.87 150.4" fill="#43687a" opacity="0.1"/><polygon points="215.89 105.8 205.8 125.98 248.02 103.94 215.89 105.8" fill="#43687a" opacity="0.4"/><polygon points="220.67 61.45 235.14 55.08 233.15 75.53 220.67 61.45" fill="#43687a" opacity="0.3"/><polygon points="200.89 42.2 203.55 51.23 195.31 62.38 200.89 42.2" fill="#43687a" opacity="0.2"/><polygon points="351.05 27.73 240.85 35.96 258.11 42.34 351.05 27.73" fill="#43687a" opacity="0.1"/><polygon points="321.57 95.17 302.72 99.69 291.57 74.46 321.57 95.17" fill="#43687a" opacity="0.4"/><polygon points="190.8 32.91 227.31 40.74 217.75 26.14 190.8 32.91" fill="#43687a" opacity="0.2"/><polygon points="210.72 31.58 217.75 26.14 220.28 47.51 210.72 31.58" fill="#43687a" opacity="0.1"/><polygon points="181.38 57.2 166.03 66.48 176.75 66.4 181.38 57.2" fill="#43687a" opacity="0.2"/><polygon points="227.31 40.74 183.1 46.05 189.34 55.35 227.31 40.74" fill="#43687a" opacity="0.3"/><polygon points="258.11 42.34 227.31 40.74 268.73 56.14 258.11 42.34" fill="#43687a" opacity="0.1"/><polygon points="205.8 125.98 185.89 103.14 192.79 87.74 205.8 125.98" fill="#43687a" opacity="0.2"/><polygon points="189.43 75.22 193.04 87.58 186.12 103.04 189.43 75.22" fill="#43687a" opacity="0.5"/><polygon points="311.22 118.28 325.02 109.65 321.57 95.31 311.22 118.28" fill="#43687a" opacity="0.1"/><polygon points="345.23 170.94 372.15 188.51 368.23 173.25 345.23 170.94" fill="#43687a" opacity="0.3"/><polygon points="307.83 121.26 316.2 138.19 321.97 134.21 307.83 121.26" fill="#43687a" opacity="0.5"/><polygon points="241.12 35.96 287.58 30.12 308.83 39.15 241.12 35.96" fill="#43687a" opacity="0.3"/><polygon points="189.21 55.48 181.22 57.44 189.74 40.61 189.21 55.48" fill="#43687a" opacity="0.1"/><polygon points="227.31 40.74 210.72 31.58 200.89 42.2 227.31 40.74" fill="#43687a" opacity="0.1"/><polygon points="220.28 55.74 224.79 51.36 215.5 52.42 220.28 55.74" fill="#43687a" opacity="0.2"/><polygon points="275.11 101.02 282.54 115.36 291.57 74.2 275.11 101.02" fill="#43687a" opacity="0.3"/><polygon points="212.04 90.79 215.43 105.73 198.9 109.11 212.04 90.79" fill="#43687a" opacity="0.1"/></g><path d="M22.37,73.85,43.56,51.42,39.84,66.19Zm20.43-21L24,72.7,39.5,65.9Z" fill="#9dbbc9"/><path d="M30.25,82.82l-7.58-9.73,35.07-8.37Zm-6.54-9.36L30.38,82,54.57,66.09Z" fill="#9dbbc9"/><path d="M23.17,74.22l-2.25-11.6,0-.06,9.1-17.34ZM21.34,62.68l1.87,9.65,5.73-24.12Z" fill="#9dbbc9"/><path d="M50.29,82.16,42.82,51.48l14,13.91Zm-6.75-29.4,6.84,28.08,6-15.35Z" fill="#9dbbc9"/><path d="M20.58,63.4,43.92,37.14l-.54,15.1Zm22.9-25.17L22.22,62.16,43,52Z" fill="#9dbbc9"/><path d="M40.09,67.48,29.17,46.74,36.58,25ZM29.82,46.69l9.44,17.92-3-36.75Z" fill="#9dbbc9"/><path d="M42.5,52.45l15.41-13.7L67.7,47.5ZM57.91,39.28l-14,12.5,23-4.52Z" fill="#9dbbc9"/><path d="M80.35,71.09,40.74,51.23,84.61,61.71ZM45.63,53,80.07,70.27l3.7-8.15Z" fill="#9dbbc9"/><path d="M70.54,77.58l-15-12.31L79.78,52.13ZM56.27,65.34,70.36,76.92,79.05,53Z" fill="#9dbbc9"/><path d="M66.8,47.82l8.37-15.28L84,39.66Zm8.49-14.67L67.74,46.94l15.48-7.37Z" fill="#9dbbc9"/><path d="M30,82.63l9.7-17,11.05,16Zm9.73-16.21-9,15.78L50,81.32Z" fill="#9dbbc9"/><path d="M43.89,38.35l-7.75-12,8-8.17ZM36.65,26.43,43.51,37l.25-17.83Z" fill="#9dbbc9"/><path d="M43.24,52.67l-16.16-20,28.36-4.56Zm-15-19.61L43.12,51.57,54.39,28.85Z" fill="#9dbbc9"/><path d="M44.21,38,16,30.37,26.63,14.78Zm-27.6-7.89,26.58,7.2L26.65,15.46Z" fill="#9dbbc9"/><path d="M57.93,38.63l-14.56-.76,12.08-21ZM44,37.51l13.45.7L55.19,18.13Z" fill="#9dbbc9"/><path d="M75.69,35.3,66.94,18.92l3.81-9.65Zm-8.1-16.42,6.79,12.7L70.55,11.41Z" fill="#9dbbc9"/><path d="M84.18,18.69,59.32,14l11.36-3.86.08.05Zm-23.3-4.82,21.33,4.05L70.63,10.56Z" fill="#9dbbc9"/><path d="M57.66,39,54.29,27.58l13.49-9.27ZM54.75,27.75l3,10.12,9-18.37Z" fill="#9dbbc9"/><path d="M67.65,49,55.4,16.63l12.66,2.91v.16ZM56,17.19,67.28,46.93l.38-27.07Z" fill="#9dbbc9"/><path d="M8.56,22l18.06-7.1h.06l18.66,3.86Zm18.1-6.68-15.39,6L42.6,18.62Z" fill="#9dbbc9"/><path d="M1.29,36.55,3,26.62l13.94,3.59Zm2-9.44-1.5,8.8L15.65,30.3Z" fill="#9dbbc9"/><path d="M2.54,27.08l7.32-5.6H10l26.48,4.72,0,.39ZM10,21.9,3.74,26.66l30.57-.43Z" fill="#9dbbc9"/><path d="M54.68,28.06,43.5,18.57l12.44-1.89ZM44.43,18.83l9.93,8.44,1.13-10.12Z" fill="#9dbbc9"/><path d="M83.09,39.82,95.93,27.6l3.74,11.92ZM95.75,28.33,84.1,39.41l15-.27Z" fill="#9dbbc9"/><path d="M67.92,19.89l-.14-.37,34.42-16-8.26,9.23,0,0Zm32.7-15.17L70.1,18.88l23.63-6.46Z" fill="#9dbbc9"/><path d="M93.38,12.81l8.05-9,5.69,8.54Zm8-8.36-7.1,7.93,12.1-.42Z" fill="#9dbbc9"/><path d="M92.52,12.84l24.91-8.63-10.6,8.14h-.07Zm22.72-7.45-20.09,7,11.54-.4Z" fill="#9dbbc9"/><path d="M116.37,5h0L101.4,4.33v-.4L128.8.59ZM103.81,4l12.5.56,9-3.17Z" fill="#9dbbc9"/><path d="M83.21,18.55l-.12-.08-13-8.23L102.2,3.77Zm-12-8.11,12,7.62L100.62,4.49Z" fill="#9dbbc9"/><path d="M74.27,34.19l8.5-15.5,12.08-6.9ZM83.07,19,76.2,31.5,92.82,13.4Z" fill="#9dbbc9"/><path d="M95.88,28.25l-12.5-9.73,23.85-6.71ZM84.24,18.69l11.56,9,10.48-15.19Z" fill="#9dbbc9"/><path d="M95.67,28.24,93.6,12.3l23.1,8.31Zm-1.6-15.35L96,27.7l19.52-7.08Z" fill="#9dbbc9"/><path d="M108.56,32.6l-2.41-20.48,10.36,8.43Zm-1.64-19.09,2,17.4,6.76-10.23Z" fill="#9dbbc9"/><path d="M109.21,32.65,93.58,12.59l7.93-8.87Zm-15.12-20,14.23,18.26-7-26.32Z" fill="#9dbbc9"/><path d="M114.63,41.64,99.25,39.51,95.47,27.44ZM99.56,39.15,113.14,41,96.21,28.49Z" fill="#9dbbc9"/><path d="M109.09,49.66l-9-1.7-1-9.21Zm-8.61-2L108,49.05l-8.32-9.14Z" fill="#9dbbc9"/><path d="M84.61,61.63,79,52.29l21.62,3.45ZM79.8,52.82l5,8.32,14.27-5.25Z" fill="#9dbbc9"/><path d="M100,56.26,82.84,39.56l17.66,8.11ZM84.78,40.88l14.9,14.49.41-7.45Z" fill="#9dbbc9"/><path d="M54.53,66.28,84.26,39.55,79.58,52.7l-.07,0ZM83.36,40.89,57.3,64.33l22-11.91Z" fill="#9dbbc9"/><path d="M79.4,52.77l-13-5,35.71-.19Zm-10.87-4.6,10.9,4.18,19-4.35Z" fill="#9dbbc9"/><path d="M84.92,62.73,66.73,47.07l17-7.76ZM67.47,47.18l17,14.64-1.07-21.9Z" fill="#9dbbc9"/><path d="M70.21,77.78,66.87,46.39,80.61,70.77ZM67.77,49.2,70.7,76.73l9.11-6.14Z" fill="#9dbbc9"/><path d="M64,79.47,57.71,39.05l.39-.1L70.7,77.38ZM58.48,41.41,64.36,79l5.84-1.83Z" fill="#9dbbc9"/><path d="M68.33,89.77,63.94,79.08,70.71,77ZM64.47,79.33l3.72,9,2-10.83Z" fill="#9dbbc9"/><path d="M34.32,97.23,51,80.61,45.31,93.48ZM49.73,82.39,35.82,96.3,45,93.16Z" fill="#9dbbc9"/><path d="M29.32,91.52,22.61,72.2l7.92,10.16ZM23.78,74.35,29.14,89.8l1-7.32Z" fill="#9dbbc9"/><path d="M35,97l-5-15.13L45.59,93.38ZM30.7,83l4.5,13.56,9.54-3.26Z" fill="#9dbbc9"/><path d="M47.57,102.69l-13-6L45.3,93.06Zm-12-5.9L47,102l-2-8.41Z" fill="#9dbbc9"/><path d="M46.56,102.58l12.73-8.39-2,7.81Zm12.09-7.49-10.64,7,8.94-.49Z" fill="#9dbbc9"/><path d="M60.59,114,56.8,101.46l6.12,2.63Zm-3.17-11.84,3.12,10.3,1.91-8.14Z" fill="#9dbbc9"/><path d="M61.79,114.5l-14.68-12-2.35-10ZM47.46,102.23,59.33,112,45.56,94.16Z" fill="#9dbbc9"/><path d="M69.09,115.71l-8.69-2.32,0-.1L56.64,101Zm-8.37-2.64L68,115,57.58,102.68Z" fill="#9dbbc9"/><path d="M50,81.75l6-16.24,8.53,13.85Zm6.06-15.33L50.64,81.25l13.24-2.19Z" fill="#9dbbc9"/><path d="M142.43,10.88,125.94.69l22.79.47ZM128.12,1.33l14.13,8.73,5.39-8.33Z" fill="#9dbbc9"/><path d="M129.07,10.55,116.61,4.88,127.18.74ZM117.63,4.91l10.9,5-1.65-8.59Z" fill="#9dbbc9"/><path d="M125.27,21.84,128.65,10h.14l14.5-.56ZM129,10.4l-3,10.48,16-11Z" fill="#9dbbc9"/><path d="M132.24,31l-7.08-9.91,13,2.55Zm-6.17-9.33,6.19,8.67,5.21-6.44Z" fill="#9dbbc9"/><path d="M137.49,24.14l5.07-14.93,5.91,9.58Zm5.17-14-4.49,13.22,9.73-4.74Z" fill="#9dbbc9"/><path d="M163.38,11.81,147.55,1.26,170.32.71ZM148.82,1.63l14.44,9.62,6.33-10.13Z" fill="#9dbbc9"/><path d="M148.08,19.1l-6-9.75,22.08,1.15ZM143.16,10l5.13,8.31L162,11Z" fill="#9dbbc9"/><path d="M137.44,24.27l5-14.75.1,0L171.12.33Zm5.32-14.44-4.54,13.4L168.8,1.49Z" fill="#9dbbc9"/><path d="M29.43,47.53,27,33.1l9.62-6.85Zm-2-14.25L29.56,45.9l6.26-18.61Z" fill="#9dbbc9"/><path d="M2.7,36a1.35,1.35,0,1,1-1.35-1.35A1.35,1.35,0,0,1,2.7,36Z" fill="#9dbbc9"/><path d="M4.56,27.2a1.35,1.35,0,1,1-1.35-1.35A1.35,1.35,0,0,1,4.56,27.2Z" fill="#9dbbc9"/><path d="M17.57,30.65a1.35,1.35,0,1,1-1.35-1.35A1.35,1.35,0,0,1,17.57,30.65Z" fill="#9dbbc9"/><circle cx="27.37" cy="33.04" r="1.35" fill="#9dbbc9"/><path d="M30.84,46.58a1.35,1.35,0,1,1-1.34-1.35A1.34,1.34,0,0,1,30.84,46.58Z" fill="#709cb1"/><path d="M45.18,37.82a1.35,1.35,0,1,1-1.35-1.35A1.34,1.34,0,0,1,45.18,37.82Z" fill="#9dbbc9"/><path d="M76.51,33.31A1.35,1.35,0,1,1,75.17,32,1.35,1.35,0,0,1,76.51,33.31Z" fill="#9dbbc9"/><circle cx="83.79" cy="39.68" r="1.35" fill="#9dbbc9"/><path d="M97.36,28.26A1.35,1.35,0,1,1,96,26.91,1.35,1.35,0,0,1,97.36,28.26Z" fill="#9dbbc9"/><path d="M56.27,28.06a1.35,1.35,0,1,1-1.35-1.35A1.35,1.35,0,0,1,56.27,28.06Z" fill="#9dbbc9"/><path d="M68.42,47.58a1.35,1.35,0,1,1-1.35-1.35A1.36,1.36,0,0,1,68.42,47.58Z" fill="#9dbbc9"/><path d="M44.72,52.16a1.35,1.35,0,1,1-1.35-1.35A1.36,1.36,0,0,1,44.72,52.16Z" fill="#9dbbc9"/><path d="M41.13,66.1a1.35,1.35,0,1,1-1.35-1.35A1.34,1.34,0,0,1,41.13,66.1Z" fill="#9dbbc9"/><circle cx="56.11" cy="65.5" r="1.35" fill="#9dbbc9"/><path d="M101.08,55.94a1.35,1.35,0,1,1-1.35-1.35A1.35,1.35,0,0,1,101.08,55.94Z" fill="#9dbbc9"/><path d="M101.67,48a1.35,1.35,0,1,1-1.35-1.35A1.35,1.35,0,0,1,101.67,48Z" fill="#9dbbc9"/><path d="M109.44,49.77a1.35,1.35,0,1,1-1.35-1.35A1.34,1.34,0,0,1,109.44,49.77Z" fill="#9dbbc9"/><path d="M115.27,41.57a1.35,1.35,0,1,1-1.35-1.35A1.35,1.35,0,0,1,115.27,41.57Z" fill="#9dbbc9"/><path d="M109.93,31.34A1.35,1.35,0,1,1,108.58,30,1.35,1.35,0,0,1,109.93,31.34Z" fill="#9dbbc9"/><path d="M100.88,39.61a1.35,1.35,0,1,1-1.35-1.35A1.35,1.35,0,0,1,100.88,39.61Z" fill="#9dbbc9"/><path d="M59.26,38.82a1.35,1.35,0,1,1-1.35-1.35A1.36,1.36,0,0,1,59.26,38.82Z" fill="#9dbbc9"/><path d="M80.76,52.56a1.35,1.35,0,1,1-1.35-1.35A1.35,1.35,0,0,1,80.76,52.56Z" fill="#9dbbc9"/><circle cx="36.4" cy="26.67" r="1.35" fill="#9dbbc9"/><path d="M11.46,22.16a1.35,1.35,0,1,1-1.35-1.35A1.34,1.34,0,0,1,11.46,22.16Z" fill="#9dbbc9"/><path d="M27.92,15.52a1.35,1.35,0,1,1-1.35-1.35A1.35,1.35,0,0,1,27.92,15.52Z" fill="#9dbbc9"/><path d="M45.45,19a1.35,1.35,0,1,1-1.35-1.35A1.36,1.36,0,0,1,45.45,19Z" fill="#9dbbc9"/><path d="M57.13,17.11a1.35,1.35,0,1,1-1.35-1.35A1.34,1.34,0,0,1,57.13,17.11Z" fill="#9dbbc9"/><path d="M69.08,19.5a1.35,1.35,0,1,1-1.35-1.35A1.34,1.34,0,0,1,69.08,19.5Z" fill="#709cb1"/><path d="M61.91,13.92a1.35,1.35,0,1,1-1.35-1.35A1.34,1.34,0,0,1,61.91,13.92Z" fill="#9dbbc9"/><path d="M72,10.74a1.35,1.35,0,1,1-1.35-1.35A1.35,1.35,0,0,1,72,10.74Z" fill="#9dbbc9"/><path d="M84.75,18.7a1.35,1.35,0,1,1-1.35-1.35A1.35,1.35,0,0,1,84.75,18.7Z" fill="#9dbbc9"/><path d="M95.5,12.53a1.35,1.35,0,1,1-1.35-1.35A1.34,1.34,0,0,1,95.5,12.53Z" fill="#9dbbc9"/><path d="M108.12,12.56a1.35,1.35,0,1,1-1.35-1.35A1.36,1.36,0,0,1,108.12,12.56Z" fill="#709cb1"/><circle cx="116.26" cy="20.89" r="1.35" fill="#9dbbc9"/><path d="M102.67,4.56a1.35,1.35,0,1,1-1.35-1.34A1.35,1.35,0,0,1,102.67,4.56Z" fill="#9dbbc9"/><path d="M128.36,1.38A1.35,1.35,0,1,1,127,0,1.36,1.36,0,0,1,128.36,1.38Z" fill="#9dbbc9"/><path d="M118.2,5a1.35,1.35,0,1,1-1.35-1.35A1.34,1.34,0,0,1,118.2,5Z" fill="#9dbbc9"/><path d="M130.35,10.34A1.35,1.35,0,1,1,129,9,1.35,1.35,0,0,1,130.35,10.34Z" fill="#9dbbc9"/><path d="M126.88,21.56a1.35,1.35,0,1,1-1.35-1.35A1.35,1.35,0,0,1,126.88,21.56Z" fill="#9dbbc9"/><path d="M133.5,31.16a1.35,1.35,0,1,1-1.35-1.35A1.35,1.35,0,0,1,133.5,31.16Z" fill="#709cb1"/><path d="M139.47,24.07a1.35,1.35,0,1,1-1.35-1.35A1.36,1.36,0,0,1,139.47,24.07Z" fill="#9dbbc9"/><path d="M149.67,19.3A1.35,1.35,0,1,1,148.32,18,1.35,1.35,0,0,1,149.67,19.3Z" fill="#9dbbc9"/><circle cx="163.25" cy="11.14" r="1.35" fill="#9dbbc9"/><path d="M171.19,1.35A1.35,1.35,0,1,1,169.84,0,1.36,1.36,0,0,1,171.19,1.35Z" fill="#9dbbc9"/><path d="M149.47,1.58A1.35,1.35,0,1,1,148.12.23,1.36,1.36,0,0,1,149.47,1.58Z" fill="#9dbbc9"/><path d="M144.09,9.94a1.35,1.35,0,1,1-1.35-1.35A1.34,1.34,0,0,1,144.09,9.94Z" fill="#9dbbc9"/><path d="M22.61,62.78a1.35,1.35,0,1,1-1.35-1.35A1.34,1.34,0,0,1,22.61,62.78Z" fill="#9dbbc9"/><path d="M24.74,73.4a1.35,1.35,0,1,1-1.35-1.35A1.35,1.35,0,0,1,24.74,73.4Z" fill="#9dbbc9"/><circle cx="29.23" cy="90.66" r="1.35" fill="#9dbbc9"/><circle cx="30.29" cy="82.43" r="1.35" fill="#9dbbc9"/><circle cx="35.34" cy="96.77" r="1.35" fill="#9dbbc9"/><path d="M48.63,102.34A1.35,1.35,0,1,1,47.29,101,1.34,1.34,0,0,1,48.63,102.34Z" fill="#9dbbc9"/><circle cx="59.1" cy="94.98" r="1.35" fill="#9dbbc9"/><path d="M58.66,102a1.35,1.35,0,1,1-1.35-1.35A1.36,1.36,0,0,1,58.66,102Z" fill="#9dbbc9"/><path d="M64.43,104.53a1.35,1.35,0,1,1-1.35-1.34A1.34,1.34,0,0,1,64.43,104.53Z" fill="#9dbbc9"/><path d="M61.65,113.3A1.35,1.35,0,1,1,60.3,112,1.36,1.36,0,0,1,61.65,113.3Z" fill="#9dbbc9"/><path d="M69.81,115.69a1.35,1.35,0,1,1-1.35-1.35A1.35,1.35,0,0,1,69.81,115.69Z" fill="#9dbbc9"/><path d="M46.78,93.05a1.35,1.35,0,1,1-1.35-1.35A1.35,1.35,0,0,1,46.78,93.05Z" fill="#9dbbc9"/><path d="M51.82,81.63a1.35,1.35,0,1,1-1.35-1.35A1.34,1.34,0,0,1,51.82,81.63Z" fill="#9dbbc9"/><circle cx="64.01" cy="79.24" r="1.35" fill="#9dbbc9"/><circle cx="68.53" cy="88.54" r="1.35" fill="#9dbbc9"/><circle cx="70.39" cy="77.38" r="1.35" fill="#9dbbc9"/><path d="M81.56,70.75a1.35,1.35,0,1,1-1.35-1.35A1.35,1.35,0,0,1,81.56,70.75Z" fill="#9dbbc9"/><circle cx="84.46" cy="61.98" r="1.35" fill="#9dbbc9"/><path d="M17.57,30.65a1.35,1.35,0,1,1-1.35-1.35A1.35,1.35,0,0,1,17.57,30.65Z" fill="#84aabb"/><path d="M45.18,37.82a1.35,1.35,0,1,1-1.35-1.35A1.34,1.34,0,0,1,45.18,37.82Z" fill="#84aabb"/><circle cx="83.79" cy="39.68" r="1.35" fill="#84aabb"/><path d="M97.36,28.26A1.35,1.35,0,1,1,96,26.91,1.35,1.35,0,0,1,97.36,28.26Z" fill="#84aabb"/><path d="M44.72,52.16a1.35,1.35,0,1,1-1.35-1.35A1.36,1.36,0,0,1,44.72,52.16Z" fill="#84aabb"/><circle cx="56.11" cy="65.5" r="1.35" fill="#84aabb"/><path d="M115.27,41.57a1.35,1.35,0,1,1-1.35-1.35A1.35,1.35,0,0,1,115.27,41.57Z" fill="#84aabb"/><path d="M109.93,31.34A1.35,1.35,0,1,1,108.58,30,1.35,1.35,0,0,1,109.93,31.34Z" fill="#84aabb"/><path d="M59.26,38.82a1.35,1.35,0,1,1-1.35-1.35A1.36,1.36,0,0,1,59.26,38.82Z" fill="#84aabb"/><path d="M45.45,19a1.35,1.35,0,1,1-1.35-1.35A1.36,1.36,0,0,1,45.45,19Z" fill="#84aabb"/><path d="M72,10.74a1.35,1.35,0,1,1-1.35-1.35A1.35,1.35,0,0,1,72,10.74Z" fill="#84aabb"/><path d="M84.75,18.7a1.35,1.35,0,1,1-1.35-1.35A1.35,1.35,0,0,1,84.75,18.7Z" fill="#84aabb"/><path d="M130.35,10.34A1.35,1.35,0,1,1,129,9,1.35,1.35,0,0,1,130.35,10.34Z" fill="#84aabb"/><path d="M149.67,19.3A1.35,1.35,0,1,1,148.32,18,1.35,1.35,0,0,1,149.67,19.3Z" fill="#84aabb"/><path d="M171.19,1.35A1.35,1.35,0,1,1,169.84,0,1.36,1.36,0,0,1,171.19,1.35Z" fill="#84aabb"/><path d="M144.09,9.94a1.35,1.35,0,1,1-1.35-1.35A1.34,1.34,0,0,1,144.09,9.94Z" fill="#84aabb"/><circle cx="29.23" cy="90.66" r="1.35" fill="#84aabb"/><circle cx="30.29" cy="82.43" r="1.35" fill="#84aabb"/><circle cx="59.1" cy="94.98" r="1.35" fill="#84aabb"/><path d="M58.66,102a1.35,1.35,0,1,1-1.35-1.35A1.36,1.36,0,0,1,58.66,102Z" fill="#84aabb"/><path d="M51.82,81.63a1.35,1.35,0,1,1-1.35-1.35A1.34,1.34,0,0,1,51.82,81.63Z" fill="#84aabb"/><path d="M81.56,70.75a1.35,1.35,0,1,1-1.35-1.35A1.35,1.35,0,0,1,81.56,70.75Z" fill="#84aabb"/><path d="M58.17,39l-.29-.06L15.81,30.69,44.14,18.82l.06.08ZM16.63,30.61l41,8L44.06,19.12Z" fill="#84aabb"/><path d="M56.15,65.58,43.26,52.29,58.05,38.52ZM43.61,52.3,56,65l1.82-25.92Z" fill="#84aabb"/><path d="M80.89,71.09,80.45,71,56.36,65.81l0-.06L43.49,37.22l.42.38ZM56.53,65.6l23.54,5.07L44.18,38.16Z" fill="#84aabb"/><path d="M83.81,39.58l-.54-20.81,25.67,12.57Zm-.29-20.42L84,39.25l24.26-8Z" fill="#84aabb"/><path d="M114.84,42l-19.4-14.1,13.26,3.35,0,.05ZM96.58,28.4l17.5,12.71-5.54-9.69Z" fill="#84aabb"/><path d="M84,40.15,70.5,10.26l.35.25L96.2,28.11l-.11.11ZM71.07,11l13,28.79L95.82,28.15Z" fill="#84aabb"/><path d="M56.55,39.51l26.71-21,13.42,9.79Zm26.72-20.3-24,18.92L95.34,28Z" fill="#84aabb"/><path d="M148.29,19.55l-6-10.08.15,0L170.35,1Zm-5.63-9.94,5.69,9.58,21-17.6Z" fill="#84aabb"/><path d="M57.15,102.25,28.44,90.64,59,94.89ZM30.32,91.14,57,101.92l1.73-6.83Z" fill="#84aabb"/><path d="M29.08,90.85l1.11-8.54h.1l20.83-.82Zm1.32-8.31-1,7.93,20.45-8.69Z" fill="#84aabb"/><path d="M28.85,91.24l14.47-39.3.13.14L56.33,65.41ZM43.42,52.38l-14,38L56,65.41Z" fill="#84aabb"/><path d="M69.68,124.32l1.72-8.59,0,0,7.38-6.53.11,0,11.34,3.18Zm2.09-8.38-1.52,7.6,19-11-10.33-2.9Z" fill="#9dbbc9"/><path d="M82.24,120.06,71.34,116,79,109Zm-10.15-4.25,9.54,3.6-2.85-9.67Z" fill="#9dbbc9"/><path d="M78.18,131.37l-8.58-7.73,12.65-4.22Zm-7.81-7.57L78,130.67l3.62-10.62Z" fill="#9dbbc9"/><path d="M98.24,120.48l-16.79-.56,8.32-7.76Zm-15.82-.93,14.81.5-7.46-7.34Z" fill="#9dbbc9"/><path d="M98.68,130.17l-1.17-10.1h5.71Zm-.72-9.7,1,8.22,3.69-8.22Z" fill="#9dbbc9"/><path d="M73.25,154.18,78,130.57l8.75,10.56Zm5-22.71L73.89,153l12.29-11.9Z" fill="#9dbbc9"/><path d="M74.07,155.22l-9.59-18.74,5.67-13.95Zm-8.93-18.77L73.08,152,69.83,124.9Z" fill="#9dbbc9"/><path d="M106.09,148,77.26,130.42l21.67-1.2,0,.14ZM78.57,130.75,105.31,147l-6.65-17.38Z" fill="#9dbbc9"/><path d="M93.74,154.27l-.1-.17L86,140.76l20.18,6.68Zm-6.86-12.81,7,12.27,11.31-6.2Z" fill="#9dbbc9"/><path d="M81.24,159.93,73,153.38l21.71.44Zm-7.08-6.13,7.14,5.67,11.64-5.29Z" fill="#9dbbc9"/><path d="M105.66,149l-3-29.64,6.08,10.12v.07Zm-2.46-27.9,2.54,24.79,2.54-16.33Z" fill="#9dbbc9"/><path d="M118.32,152.88,107.83,128.8l9.31,5.77Zm-9.18-22.56,8.37,19.2-1-14.61Z" fill="#9dbbc9"/><path d="M117.44,151.69l7.66-14.9,4.23,8.39Zm7.65-14-6.7,13L128.8,145Z" fill="#9dbbc9"/><path d="M123.88,157l-7.33-22.57,8.75,2.64Zm-6.72-22L123.63,155l1.25-17.58Z" fill="#9dbbc9"/><path d="M106.68,163l23-18.65-5.74,11.77-.07,0Zm21.81-17.2L109,161.68l14.64-5.86Z" fill="#9dbbc9"/><path d="M111,174.07l13.16-19.56-3.09,12.19Zm12.21-17.43-10.61,15.77,8.11-5.95Z" fill="#9dbbc9"/><path d="M107.69,162.8l-2.23-15.6,12.81,3.9Zm-1.75-15,2,14.14,9.6-10.6Z" fill="#9dbbc9"/><path d="M95.31,183.09l12.56-21.2,4.18,11.44-.14.08Zm12.47-20.27L96.44,182l15.12-8.82Z" fill="#9dbbc9"/><path d="M103.58,193.5l-8.27-11.42,12.55,5.14ZM96.45,183l7.12,9.83,3.69-5.41Z" fill="#9dbbc9"/><path d="M107.65,187.71l-16-18.22,20.42,3.59Zm-15-17.63,14.79,16.83,4.08-13.51Z" fill="#9dbbc9"/><path d="M91.92,170.12l1.73-16.45,14.6,8.7ZM94,154.33l-1.59,15.13,15-7.13Z" fill="#9dbbc9"/><path d="M83.25,180.35,81,159.19l11.42,10.58ZM81.53,160.2l2,19.2,8.33-9.6Z" fill="#9dbbc9"/><path d="M83.1,193.8V179.51l13.43,2.86Zm.6-13.55v12.26l11.52-9.81Z" fill="#9dbbc9"/><path d="M89.15,213.48,83,192.59,97,204Zm-5.38-19.76,5.55,18.93,7.07-8.58Z" fill="#9dbbc9"/><path d="M96.5,204.69l-.85-22.8,8.17,11.26-.08.11Zm-.4-21.51.75,20.21,6.49-10.23Z" fill="#9dbbc9"/><path d="M103.27,222l-14.82-9.19,8.6.6,0,.07ZM90,213.32l11.73,7.28-4.93-6.81Z" fill="#9dbbc9"/><path d="M97.28,215.26,83.12,180l.54-.26L97,204Zm-11.76-30.9,11.07,27.58-.21-7.82Z" fill="#9dbbc9"/><path d="M76.68,96.77,63.9,93l4.78-4.72Zm-12-4L75.38,96l-6.71-7.12Z" fill="#9dbbc9"/><path d="M84,99.2l-8.33-2.75L67,87.28ZM76,96.14,81.59,98,70,89.88Z" fill="#9dbbc9"/><circle cx="83" cy="98.76" r="1.35" fill="#9dbbc9"/><path d="M77.44,96.5a1.35,1.35,0,1,1-1.35-1.35A1.34,1.34,0,0,1,77.44,96.5Z" fill="#9dbbc9"/><path d="M65.63,92.92a1.35,1.35,0,1,1-1.35-1.35A1.36,1.36,0,0,1,65.63,92.92Z" fill="#709cb1"/><circle cx="78.88" cy="109.38" r="1.35" fill="#9dbbc9"/><path d="M73.06,115.89a1.35,1.35,0,1,1-1.35-1.35A1.35,1.35,0,0,1,73.06,115.89Z" fill="#9dbbc9"/><circle cx="69.99" cy="123.72" r="1.35" fill="#709cb1"/><path d="M66.16,136.46a1.35,1.35,0,1,1-1.35-1.35A1.34,1.34,0,0,1,66.16,136.46Z" fill="#9dbbc9"/><circle cx="78.09" cy="131.02" r="1.35" fill="#9dbbc9"/><circle cx="81.94" cy="119.74" r="1.35" fill="#9dbbc9"/><path d="M91.12,112.43a1.35,1.35,0,1,1-1.35-1.35A1.35,1.35,0,0,1,91.12,112.43Z" fill="#9dbbc9"/><path d="M99.08,120.27a1.35,1.35,0,1,1-1.35-1.35A1.35,1.35,0,0,1,99.08,120.27Z" fill="#9dbbc9"/><path d="M104.26,120.27a1.35,1.35,0,1,1-1.35-1.35A1.35,1.35,0,0,1,104.26,120.27Z" fill="#9dbbc9"/><path d="M109.84,129.56a1.35,1.35,0,1,1-1.35-1.35A1.35,1.35,0,0,1,109.84,129.56Z" fill="#9dbbc9"/><path d="M100.15,129.43a1.35,1.35,0,1,1-1.35-1.35A1.36,1.36,0,0,1,100.15,129.43Z" fill="#9dbbc9"/><path d="M87.8,141.11a1.35,1.35,0,1,1-1.35-1.35A1.34,1.34,0,0,1,87.8,141.11Z" fill="#9dbbc9"/><circle cx="73.57" cy="153.59" r="1.35" fill="#9dbbc9"/><circle cx="81.27" cy="159.7" r="1.35" fill="#709cb1"/><circle cx="94.02" cy="154.39" r="1.35" fill="#9dbbc9"/><circle cx="105.7" cy="147.48" r="1.35" fill="#9dbbc9"/><path d="M118.2,134.74a1.35,1.35,0,1,1-1.35-1.35A1.35,1.35,0,0,1,118.2,134.74Z" fill="#9dbbc9"/><path d="M126.43,137.66a1.35,1.35,0,1,1-1.35-1.35A1.35,1.35,0,0,1,126.43,137.66Z" fill="#9dbbc9"/><path d="M130.42,145.09a1.35,1.35,0,1,1-1.35-1.35A1.35,1.35,0,0,1,130.42,145.09Z" fill="#9dbbc9"/><path d="M119.26,151.2a1.35,1.35,0,1,1-1.35-1.35A1.34,1.34,0,0,1,119.26,151.2Z" fill="#9dbbc9"/><path d="M125.11,156a1.35,1.35,0,1,1-1.35-1.35A1.35,1.35,0,0,1,125.11,156Z" fill="#9dbbc9"/><path d="M122.45,166.6a1.35,1.35,0,1,1-1.35-1.35A1.34,1.34,0,0,1,122.45,166.6Z" fill="#9dbbc9"/><path d="M109.17,162.35a1.35,1.35,0,1,1-1.35-1.35A1.34,1.34,0,0,1,109.17,162.35Z" fill="#9dbbc9"/><circle cx="111.81" cy="173.24" r="1.35" fill="#9dbbc9"/><circle cx="92.16" cy="169.79" r="1.35" fill="#9dbbc9"/><path d="M84.75,179.88a1.35,1.35,0,1,1-1.35-1.35A1.36,1.36,0,0,1,84.75,179.88Z" fill="#9dbbc9"/><path d="M97.23,182.53a1.35,1.35,0,1,1-1.35-1.35A1.35,1.35,0,0,1,97.23,182.53Z" fill="#9dbbc9"/><circle cx="107.56" cy="187.31" r="1.35" fill="#709cb1"/><path d="M104.93,193.15a1.35,1.35,0,1,1-1.35-1.35A1.35,1.35,0,0,1,104.93,193.15Z" fill="#9dbbc9"/><path d="M84.75,193.15a1.35,1.35,0,1,1-1.35-1.35A1.35,1.35,0,0,1,84.75,193.15Z" fill="#9dbbc9"/><path d="M98,204a1.35,1.35,0,1,1-1.35-1.35A1.34,1.34,0,0,1,98,204Z" fill="#9dbbc9"/><circle cx="89.24" cy="213.07" r="1.35" fill="#9dbbc9"/><path d="M98.29,213.6a1.35,1.35,0,1,1-1.35-1.35A1.36,1.36,0,0,1,98.29,213.6Z" fill="#9dbbc9"/><circle cx="102.51" cy="221.3" r="1.35" fill="#9dbbc9"/><path d="M86.15,141.73,81.48,119l17.79,10.22ZM82.33,120.2l4.19,20.36,11.76-11.2Z" fill="#84aabb"/><path d="M73.49,153.74l.05-.18,8.3-33.84.16.17,23.82,27.55-.2,0ZM82,120.22l-8.16,33.21,31.56-6.14Z" fill="#84aabb"/><path d="M107.66,162.67l-2.2-15.41h.12l24-2.56Zm-1.93-15.2,2.1,14.74L128.77,145Z" fill="#84aabb"/><path d="M95.78,182.75l-3.6-13.27,0,0L106,146.54Zm-3.34-13.24,3.34,12.34,9.46-33.66Z" fill="#84aabb"/><path d="M103.62,193.48l-11.47-24,.11-.05,15.63-7.15,0,.22ZM92.47,169.56l11,23.09,4.11-30Z" fill="#84aabb"/><path d="M103.66,193.41l-8-11.09,0-.06L106,146.41Zm-7.75-11.13,7.55,10.44,2.2-44.26Z" fill="#84aabb"/><path d="M108.14,162.67l-34.72-9,.15-.15L86.33,141Zm-34.25-9.15,33.46,8.69-21-20.9Z" fill="#84aabb"/><path d="M105.75,147.56l0-.08-7-18.07.28.14,30.62,15.38-.4,0Zm-6.63-17.65,6.79,17.4,22.83-2.53Z" fill="#84aabb"/><circle cx="81.94" cy="119.74" r="1.35" fill="#84aabb"/><path d="M100.15,129.43a1.35,1.35,0,1,1-1.35-1.35A1.36,1.36,0,0,1,100.15,129.43Z" fill="#709cb1"/><path d="M87.8,141.11a1.35,1.35,0,1,1-1.35-1.35A1.34,1.34,0,0,1,87.8,141.11Z" fill="#84aabb"/><circle cx="73.57" cy="153.59" r="1.35" fill="#84aabb"/><circle cx="105.7" cy="147.48" r="1.35" fill="#84aabb"/><path d="M130.42,145.09a1.35,1.35,0,1,1-1.35-1.35A1.35,1.35,0,0,1,130.42,145.09Z" fill="#84aabb"/><path d="M109.17,162.35a1.35,1.35,0,1,1-1.35-1.35A1.34,1.34,0,0,1,109.17,162.35Z" fill="#84aabb"/><circle cx="92.16" cy="169.79" r="1.35" fill="#84aabb"/><path d="M97.23,182.53a1.35,1.35,0,1,1-1.35-1.35A1.35,1.35,0,0,1,97.23,182.53Z" fill="#84aabb"/><path d="M104.93,193.15a1.35,1.35,0,1,1-1.35-1.35A1.35,1.35,0,0,1,104.93,193.15Z" fill="#84aabb"/><circle cx="89.24" cy="213.07" r="1.35" fill="#84aabb"/><path d="M84.4,62.13,79.19,52.4l21,3.5Zm-4.77-9.41,4.88,9.11L99.28,56Z" fill="#3d5f6f"/><path d="M55.52,65.7,79.46,52.39l5.19,9.69-.18,0Zm23.85-13L56.71,65.31l27.56-3.42Z" fill="#3d5f6f"/><path d="M45.48,93.25l-.13-.11L23.14,73.34l.22,0,33-8-.09.22ZM23.64,73.46,45.38,92.85,55.92,65.67Z" fill="#3d5f6f"/><path d="M56,65.65l1.65-26.31.15.06L100.14,56l-.39.08Zm1.87-26L56.24,65.35l43.08-9.44Z" fill="#3d5f6f"/><path d="M57.24,102,45.33,93.13,21.17,62.86l.18-.16L57.4,101.86ZM45.51,93l10.83,8.11L23.48,65.36Z" fill="#3d5f6f"/><path d="M68.52,88.77l-.1-.18L55.88,65.33l.26.06,24.32,5.38-.09.15ZM56.34,65.68,68.54,88.3,80.07,70.93Z" fill="#3d5f6f"/><path d="M84.6,62.8,75,33.29l8.47-15v.43ZM75.3,33.32l9,27.85-1-42Z" fill="#3d5f6f"/><path d="M79.59,52.8l-.24-.14L35.79,26.44,75.26,33.2l0,.08ZM37,26.89,79.24,52.31l-4.17-18.9Z" fill="#3d5f6f"/><path d="M75.23,33.44,35.69,26.67l.69-.12,47.24-8ZM37.11,26.67l38,6.51,8.07-14.32Z" fill="#3d5f6f"/><path d="M57.7,39.63,10.07,22.27l.06-.23,26.33,4.53L57.8,39.41ZM11.4,22.5,56.62,39,36.36,26.78Z" fill="#3d5f6f"/><path d="M84.09,62.26l.28-.35,24.57-31.23L99.82,56l0,0ZM108.22,32,84.83,61.71l14.8-5.86Z" fill="#3d5f6f"/><path d="M80.39,71l-.14,0L20.49,62.8l.75-.14L79.53,52.42ZM22,62.77l58.1,7.94-.84-18Z" fill="#3d5f6f"/><path d="M56.32,65.64l-.22,0-35-2.73.06-.16L36.39,26.39l.12.23Zm-34.88-3,34.47,2.7L36.41,27Z" fill="#3d5f6f"/><path d="M80.29,71.08l-.12-.16L57.08,38.81,84.61,62l0,.09ZM58.4,40.22l21.85,30.4L84.31,62Z" fill="#3d5f6f"/><path d="M84.67,62.18l-14-4.78,7.8-9.85Zm-13.62-4.9,13.19,4.5L78.39,48Z" fill="#3d5f6f"/><path d="M125.07,21.73l17.71-12,5.74,9.63-.19,0ZM142.7,10.11,126,21.39l22.13-2.19Z" fill="#3d5f6f"/><path d="M79.26,52.82l0-.28,4-34,.15.08,25.36,12.72ZM83.5,18.89,79.56,52.3l28.79-20.95Z" fill="#3d5f6f"/><path d="M73.41,153.74l0-.18,8.42-34.08.15.18,23.9,27.9-.21,0ZM82,120l-8.27,33.45,31.75-6Z" fill="#3d5f6f"/><path d="M111.73,173.44l0-.17L105.46,147l15.81,19.62-.1.08ZM105.94,148,111.88,173l9.05-6.46Z" fill="#3d5f6f"/><path d="M103.69,193.7l-.17-.11L83.39,180.26l.06-.1,22.39-33.1Zm-20-13.51,19.75,13.08,2.09-45.37Z" fill="#3d5f6f"/><path d="M122.11,167l-17.23-5.22-14.26-12.5ZM105,161.61l15.07,4.56L92.51,150.65Z" fill="#3d5f6f"/><path d="M112.34,173.91,97.08,159.55l8,2.07,0,0ZM97.93,160l13.34,12.55-6.39-10.75Z" fill="#3d5f6f"/><path d="M111.89,173.52l-.17-.2L91.19,149.73l22.74,7.63v.09Zm-20-23.29L111.72,173l2-15.44Z" fill="#3d5f6f"/><path d="M103.64,193.67l-.13-.08L82.7,179.69l.27-.06,29-6.56ZM83.3,179.8l20.23,13.51,8.08-19.9Z" fill="#3d5f6f"/><path d="M112.13,173.54,73,153.44l27.7,1.49,0,.06Zm-38-19.8,37.36,19.2-10.89-17.77Z" fill="#3d5f6f"/><path d="M89.33,213.4l-.2-.12L117.81,151l.22.09L104.2,193Zm27.81-60.34L89.85,212.28,104,192.83Z" fill="#3d5f6f"/><path d="M108.55,159.65l-3-12.34.19.06L118.16,151Zm-2.68-12,2.82,11.55,9-8.07Z" fill="#3d5f6f"/><path d="M118,151.11h-.34l-26.17-1,0-.08-9.76-30.66Zm-26.34-1.25,25.67,1L82.18,120.11Z" fill="#3d5f6f"/><path d="M89.35,213.37l-.23-.06,8.29-53.67,7.7,2,0,.12Zm8.25-53.43-8,51.76,15.2-49.9Z" fill="#3d5f6f"/><path d="M165.39,44.33l9-11.63-.29,8.72ZM174,33.92l-7.48,9.62,7.24-2.41Z" fill="#9dbbc9"/><path d="M180,43.31l-6.3-1.89.18-9Zm-5.9-2.18,5.07,1.51-4.92-8.76Z" fill="#9dbbc9"/><path d="M173.24,46.25l.53-5.24,6.66,2.09Zm.87-4.71-.41,4.07,5.6-2.45Z" fill="#9dbbc9"/><path d="M181.7,57.93,172.86,50l10.2-4.42Zm-8.11-7.78,7.8,7,1.2-10.87Z" fill="#9dbbc9"/><path d="M176.82,67.61,166,57.48l10.05.17ZM167,57.89l9.32,8.73L175.68,58Z" fill="#9dbbc9"/><path d="M165.81,67l.51-9.46,10.15-.09Zm.89-9.07L166.26,66l9.16-8.2Z" fill="#9dbbc9"/><path d="M165.31,66.68l16.56-10-5,9.92Zm15.58-9-14.13,8.54,9.86-.07Z" fill="#9dbbc9"/><path d="M181.21,59l-2-16.6L183,45.86ZM179.73,43.4l1.51,12.5L182.61,46Z" fill="#9dbbc9"/><path d="M195.19,54.81l-12.7-8.87,7.34-5.65Zm-12-8.89,11.22,7.84-4.73-12.83Z" fill="#9dbbc9"/><path d="M195.84,63,189,55l6-1.32Zm-6.13-7.79,5.61,6.58-.71-7.65Z" fill="#9dbbc9"/><path d="M193.82,68.62l1.33-7,5.95.59Zm1.66-6.55-1.06,5.49,5.73-5Z" fill="#9dbbc9"/><path d="M180.85,57.74l9.12-18-.57,15.93Zm8.66-16.23L181.6,57.15,189,55.32Z" fill="#9dbbc9"/><path d="M191.1,33.46l-8.33-3.59,9.48-5Zm-7.41-3.62,7.08,3.05,1-7.32Z" fill="#9dbbc9"/><path d="M191.48,25.47l8.09-8.79,6,7.09Zm8.08-8.19L192.51,25l12.24-1.49Z" fill="#9dbbc9"/><path d="M197,37.53l-6.37-4.35,6.66-4.78Zm-5.68-4.36,5.31,3.62.24-7.6Z" fill="#9dbbc9"/><path d="M196.6,29.45l2.79-13.11,6.34,7.07Zm3.13-11.84-2.24,10.53,7.33-4.85Z" fill="#9dbbc9"/><path d="M218.33,26.41l-13.57-3,10.17-6.5Zm-12.54-3.15,11.92,2.61-3-8.32Z" fill="#9dbbc9"/><path d="M205.23,23.61l-6.12-6.84,16.81.29ZM200,17.18l5.29,5.91,9.23-5.66Z" fill="#9dbbc9"/><path d="M211.29,32.15l-8.94-2,2.88-7.21Zm-8.4-2.3,7.52,1.69-5.09-7.76Z" fill="#9dbbc9"/><path d="M221.11,34.65l-10.7-2.71,7.71-6.13Zm-9.82-2.9,9.21,2.34-2.58-7.62Z" fill="#9dbbc9"/><path d="M189.18,41.14,197.28,28l-.44,9Zm7.62-11.58-6.5,10.52,6.15-3.31Z" fill="#9dbbc9"/><path d="M212.87,44.75l-12.68-2,3.7-7.27Zm-12.07-2.3,10.95,1.72-7.75-8Z" fill="#9dbbc9"/><path d="M212.18,44.93l-2-13.62,10.95,2.95Zm-1.49-13.08L212.44,44l8-9.51Z" fill="#9dbbc9"/><path d="M203.75,52.75V35.45l7.06-4.32Zm.39-17.07V50.25l6-18.22Z" fill="#9dbbc9"/><path d="M203.77,51.76,189,40.31l12,1.71ZM190.45,40.91l12.61,9.79-2.33-8.32Z" fill="#9dbbc9"/><path d="M204.31,61.76l-9.94-7.95L203.6,51v.25ZM195.2,54l8.65,6.91-.62-9.39Z" fill="#9dbbc9"/><path d="M205.29,68.91l-1.18-7.37L210.3,61Zm-.72-7,1,5.9,4-6.38Z" fill="#9dbbc9"/><path d="M209.92,61.56,203,51l12.82,1.27Zm-6.11-10.09,6.11,9.35,5.23-8.23Z" fill="#9dbbc9"/><path d="M215,52.69l12.7-12.85L225,51.55Zm12-11.57L216,52.16l8.6-1Z" fill="#9dbbc9"/><path d="M215.52,53l-3.44-8.61,9.18-10.9Zm-3-8.53,2.93,7.32,4.88-16.6Z" fill="#9dbbc9"/><path d="M220.3,56,215,52.29l10.4-1.19ZM216,52.56l4.21,2.93,4-3.86Z" fill="#9dbbc9"/><path d="M212.73,69.86l-3.23-9L221,60.75Zm-2.39-8.38L213,68.72l6.64-7.36Z" fill="#9dbbc9"/><path d="M223.51,69l-3-8.39,11.24-.29Zm-2.42-8,2.58,7.27,7.15-7.52Z" fill="#9dbbc9"/><path d="M231.3,60.87l-7-9.9,11.06,3.87Zm-6-9.11,6,8.41,3.41-5.12Z" fill="#9dbbc9"/><path d="M212.32,69.53,220.74,61l3.14,7.56Zm8.28-7.86L213.36,69l9.95-.86Z" fill="#9dbbc9"/><path d="M222.58,77.5l.85-9.52,9.8,7.39Zm1.18-8.77L223,77l9.26-1.85Z" fill="#9dbbc9"/><path d="M244.6,51,226.83,40.42l14.44-4.72ZM227.79,40.53,244,50.16l-3-13.94Z" fill="#9dbbc9"/><path d="M241.47,36.19l-21-1.65,11.41-15.67Zm-20.29-2,19.58,1.54-9-16.14Z" fill="#9dbbc9"/><path d="M240.58,36.46l7.29-17.11L265,28.05Zm7.59-16.28-6.51,15.28,21.8-7.52Z" fill="#9dbbc9"/><path d="M260.37,71.29l-19.9-35.88,17.66,6.45v.19Zm-18.6-34.77,17.8,32.09-2-26.33Z" fill="#9dbbc9"/><path d="M231.87,19.43l-.12-.38,15.45-6.66h.05l10.46,1.19Zm15.39-6.63-13.38,5.77,21.45-4.85Z" fill="#9dbbc9"/><path d="M266.07,29.27,247.74,20l-.9-8.11Zm-17.77-9.7,14.07,7.15L247.61,13.35Z" fill="#9dbbc9"/><path d="M264.35,28.65l-8.1-15.08,10.33-5,0,.36Zm-7.56-14.9,7.3,13.59,2-18.12Z" fill="#9dbbc9"/><path d="M310.48,39.53,241.1,36.26l0-.59,46.55-5.86.07,0Zm-65.89-3.7,62.59,2.94-19.64-8.34Z" fill="#9dbbc9"/><path d="M227.31,40.75l-6.84-6.42L249.12,19Zm-6.17-6.34,6.17,5.79,19.62-19.62Z" fill="#9dbbc9"/><path d="M243.54,59.93l.57-9.48.09-.05,14.56-9.14Zm1-9.25-.49,8,12.92-15.84Z" fill="#9dbbc9"/><path d="M235.21,54.68l5.94-19.52,3.11,14.72Zm5.87-17.92-5.21,17.12,7.94-4.22Z" fill="#9dbbc9"/><path d="M239.07,66.75l-8-6.18,4.6-6.76Zm-7.51-6.27,6.83,5.24-2.93-11Z" fill="#9dbbc9"/><path d="M226.3,87.81l-5.41-5.42,12.39-7.69Zm-4.78-5.34,4.68,4.67,6-11.32Z" fill="#9dbbc9"/><path d="M232.61,75.84l-1.56-15.75,7.95,6.1ZM231.54,61l1.36,13.72,5.56-8.4Z" fill="#9dbbc9"/><path d="M248.43,70.69l-.06-.13-5.6-12,17.83,11.6Zm-4.71-11.08,5,10.67,10.66-.5Z" fill="#9dbbc9"/><path d="M250.93,85.24l-10.89-5L238.28,65Zm-10.33-5.4,8.77,4L239.18,67.52Z" fill="#9dbbc9"/><path d="M250.53,85.73,238,65.69l11.33,3.77Zm-11.11-19,10.34,16.59-1-13.47Z" fill="#9dbbc9"/><path d="M259.15,70.9l9.44-15.18.06,0,20-9.43ZM268.87,56,260.8,69,286,48Z" fill="#9dbbc9"/><path d="M234.72,100.81l-.14-.22-8.72-13.35,19.39,1.66Zm-8.08-13.1,8.13,12.45,9.65-10.93Z" fill="#9dbbc9"/><path d="M245.71,90.37l-14-16,8.78,5.54,0,0Zm-11.9-14.21L244,87.77l-3.79-7.59Z" fill="#9dbbc9"/><path d="M248.23,104.58,244.57,88.8l9.3,2.25-.09.22ZM245.1,89.34l3.24,14,5-12Z" fill="#9dbbc9"/><path d="M236.19,109l-1.7-8.77,14.44,3.67ZM235,100.76l1.49,7.68L247.65,104Z" fill="#9dbbc9"/><path d="M220.71,35l-3.06-9,14.73-7.54Zm-2.33-8.73,2.52,7.43,9.6-13.63Z" fill="#9dbbc9"/><path d="M279.26,19.74l-13.8-11.5,19.41.14ZM267.12,8.85l11.94,10L283.91,9Z" fill="#9dbbc9"/><path d="M287.47,30.71,284.14,8.37l13.27,5.17-.12.2ZM284.63,9l3.07,20.54,9.13-15.79Z" fill="#9dbbc9"/><path d="M309.16,39.93l-.36-.26L278.87,18.59,306.55,16l0,.19ZM280,18.88l28.69,20.21L306.19,16.4Z" fill="#9dbbc9"/><path d="M268.38,56.76l-4.72-28.88,16.1-9.58ZM264.1,28.08,268.49,55l10.6-35.81Z" fill="#9dbbc9"/><path d="M298.83,57.38l-12-10.54v-.1l.54-17.57ZM287.27,46.66,297.83,56,287.75,31.07Z" fill="#9dbbc9"/><path d="M265.84,87.19l-16-2.49L260,69.5Zm-15.35-2.78,14.77,2.29-5.35-16.3Z" fill="#9dbbc9"/><path d="M273.29,73.08,259.24,70l40.58-14ZM260.7,69.91l12.51,2.75L296.83,57.4Z" fill="#9dbbc9"/><path d="M291.66,74.44l-18.57-1.38,0-.14-5-17.61ZM273.4,72.68l17,1.27L268.8,56.42Z" fill="#9dbbc9"/><path d="M274.53,91.24,265.27,87l8.14-14.87Zm-8.71-4.39,8.27,3.76-1-17Z" fill="#9dbbc9"/><path d="M306.37,16.39h0l-10.48-2.33,23.33-.86.05.4ZM299,14.33,306.37,16,317,13.67Z" fill="#9dbbc9"/><path d="M308.34,40.54l10.13-28.23,2,13.35Zm10-26.6L309.5,38.48,320,25.55Z" fill="#9dbbc9"/><path d="M337,33,317.49,12.63l15.75,3.43ZM319.28,13.63,335.92,31l-3.18-14.44Z" fill="#9dbbc9"/><path d="M350.65,28.06l-.25-.16L331.63,15.47l21,2.8Zm-17.36-12L350.38,27.4l1.76-8.79Z" fill="#9dbbc9"/><path d="M348.52,33.52l-13-1.44,15.57-5.47Zm-11.19-1.64,10.93,1.21,2.18-5.83Z" fill="#9dbbc9"/><path d="M368.32,23.43l-.07,0-17.56-5.27,25.56,1.47Zm-14.27-4.7L368.29,23l6.4-3.08Z" fill="#9dbbc9"/><path d="M355.5,28l12.89-5,2.93,4.69Zm12.72-4.49-10.48,4.05,12.87-.24Z" fill="#9dbbc9"/><path d="M357,28l-6.4-.88,1.74-9.32ZM351,26.77l5.28.72-3.84-8.4Z" fill="#9dbbc9"/><path d="M355.31,38.87l1.16-11.66,4.67,6.12Zm1.46-10.62-1,9.59,4.79-4.55Z" fill="#9dbbc9"/><path d="M363.31,47l-6.94-19.42,12.21-4.72Zm-6.44-19.19,6.34,17.75L368,23.54Z" fill="#9dbbc9"/><path d="M363.57,46.93l-8.29-8.58.14-.14,5.58-5.3Zm-7.73-8.57,7.1,7.35-2.2-12Z" fill="#9dbbc9"/><path d="M333.6,41.13l-14.05-16,17.14,6.74-.06.18Zm-12.66-15,12.5,14.26,2.75-8.25Z" fill="#9dbbc9"/><path d="M344.31,60.78,332.88,40.2l13.72,4.86ZM334.16,41.29,344,58.94l2-13.48Z" fill="#9dbbc9"/><path d="M314.39,75.37l-5.82-36.8,9.76,15.67Zm-5.12-34.92L314.42,73l3.49-18.71Z" fill="#9dbbc9"/><path d="M327.62,65.13,317.56,54l26.82,5.86Zm-8.94-10.52,9.06,10.07,15.1-4.78Z" fill="#9dbbc9"/><path d="M336.67,65.65l-9.24-.56,6.16-25.47Zm-8.74-.93,8.29.5-2.77-23.35Z" fill="#9dbbc9"/><path d="M342.15,73.94l-6-8.54,7.69-6Zm-5.44-8.46,5.17,7.38,1.48-12.55Z" fill="#9dbbc9"/><path d="M334.9,91.33,327.21,64l10,12.82Zm-6.75-25.5,6.64,23.63,2-12.55Z" fill="#9dbbc9"/><path d="M321.76,95.56l-.11-.32L314.11,74l24.06,3ZM314.7,74.44l7.21,20.35,15.46-17.52Z" fill="#9dbbc9"/><path d="M314.86,74.4H291.27l7.13-17.56Zm-23-.4h22.08l-15.4-16.43Z" fill="#9dbbc9"/><path d="M322.63,95.48l-24.57-3.31-6.9-18.5Zm-24.28-3.67L321,94.87,292,74.72Z" fill="#9dbbc9"/><path d="M321.64,101.81l-19.31-1.13-4.55-9.09Zm-19.06-1.52,16.8,1-20.75-8.89Z" fill="#9dbbc9"/><path d="M307.93,102.89l14.19-8.11-1.44,7Zm13.62-7.32-11.83,6.76,10.63-1Z" fill="#9dbbc9"/><path d="M327.24,109.71l-14.59-1.24L308,102ZM313,107.9l10.37.88-13.67-5.51Z" fill="#9dbbc9"/><path d="M320.25,114.92l-7.9-6.73,8.49-7.32Zm-7-6.74,6.44,5.49.47-11.45Z" fill="#9dbbc9"/><path d="M311.21,119.87l-2.7-18.05,4.51,6.32Zm-2.06-16.47,2.07,13.81,1.38-9Z" fill="#9dbbc9"/><path d="M318,128.55l-7-10v-.08l1.74-11.34Zm-6.61-10.06,5.71,8.1-4.29-17.39Z" fill="#9dbbc9"/><path d="M286.57,103.46l-11.65-2.28-.85-10.8Zm-11.28-2.61,10.12,2L274.55,91.47Z" fill="#9dbbc9"/><path d="M289.19,120.31l-6.88-4.87L286,102.25Zm-6.42-5,5.86,4.16L286,104Z" fill="#9dbbc9"/><path d="M282.62,115.94,274.88,101l.06-.1L292,73.09ZM275.33,101l7.13,13.75,8.66-39.46Z" fill="#9dbbc9"/><path d="M286,103.42,274.37,90.71l24.33,1.1ZM275.31,91.15,286,102.86l11.72-10.69Z" fill="#9dbbc9"/><path d="M86.34,62a1.88,1.88,0,1,1-1.88-1.88A1.88,1.88,0,0,1,86.34,62Z" fill="#3d5f6f"/><path d="M25.16,73.4a1.78,1.78,0,1,1-1.77-1.77A1.78,1.78,0,0,1,25.16,73.4Z" fill="#3d5f6f"/><path d="M83,119.74a1,1,0,0,1-2,0,1,1,0,1,1,2,0Z" fill="#3d5f6f"/><circle cx="73.57" cy="153.59" r="1.01" fill="#3d5f6f"/><path d="M122.11,166.6a1.11,1.11,0,0,1-1,1,1,1,0,1,1,0-2A1.11,1.11,0,0,1,122.11,166.6Z" fill="#3d5f6f"/><path d="M119.9,151.09a2.18,2.18,0,0,1-2,2,2,2,0,0,1,0-4A2.18,2.18,0,0,1,119.9,151.09Z" fill="#3d5f6f"/><path d="M91.29,213.33a2.27,2.27,0,0,1-2.05,2.06,2.06,2.06,0,1,1,0-4.11A2.26,2.26,0,0,1,91.29,213.33Z" fill="#3d5f6f"/><path d="M109.29,159.56a.74.74,0,0,1-.67.67.67.67,0,1,1,0-1.33A.74.74,0,0,1,109.29,159.56Z" fill="#3d5f6f"/><path d="M105.77,161.86a.74.74,0,0,1-.67.67.67.67,0,0,1,0-1.34A.74.74,0,0,1,105.77,161.86Z" fill="#3d5f6f"/><path d="M98,159.92a.73.73,0,0,1-.66.67.67.67,0,1,1,0-1.33A.73.73,0,0,1,98,159.92Z" fill="#3d5f6f"/><path d="M92.23,150.12a.74.74,0,0,1-.67.67.67.67,0,0,1,0-1.34A.74.74,0,0,1,92.23,150.12Z" fill="#3d5f6f"/><circle cx="111.81" cy="173.24" r="1.01" fill="#3d5f6f"/><path d="M104.93,193.15a1.35,1.35,0,1,1-1.35-1.35A1.35,1.35,0,0,1,104.93,193.15Z" fill="#3d5f6f"/><circle cx="79.41" cy="52.56" r="1.63" fill="#3d5f6f"/><path d="M101.08,55.94a1.35,1.35,0,1,1-1.35-1.35A1.35,1.35,0,0,1,101.08,55.94Z" fill="#3d5f6f"/><circle cx="105.7" cy="147.48" r="2.01" fill="#3d5f6f"/><circle cx="56.11" cy="65.5" r="1.35" fill="#3d5f6f"/><path d="M22.28,62.78a1,1,0,1,1-1-1A1,1,0,0,1,22.28,62.78Z" fill="#3d5f6f"/><path d="M47.21,93.05a1.79,1.79,0,1,1-1.78-1.78A1.79,1.79,0,0,1,47.21,93.05Z" fill="#3d5f6f"/><path d="M84.75,179.88a1.35,1.35,0,1,1-1.35-1.35A1.36,1.36,0,0,1,84.75,179.88Z" fill="#3d5f6f"/><path d="M109.59,31.34a1,1,0,1,1-1-1A1,1,0,0,1,109.59,31.34Z" fill="#3d5f6f"/><path d="M81.28,70.85a1,1,0,1,1-1-1A1,1,0,0,1,81.28,70.85Z" fill="#3d5f6f"/><path d="M11.12,22.16a1,1,0,1,1-1-1A1,1,0,0,1,11.12,22.16Z" fill="#3d5f6f"/><path d="M126.54,21.56a1,1,0,1,1-1-1A1,1,0,0,1,126.54,21.56Z" fill="#3d5f6f"/><path d="M149.33,19.3a1,1,0,1,1-1-1A1,1,0,0,1,149.33,19.3Z" fill="#3d5f6f"/><path d="M143.75,9.94a1,1,0,1,1-1-1A1,1,0,0,1,143.75,9.94Z" fill="#3d5f6f"/><path d="M76.18,33.31a1,1,0,1,1-1-1A1,1,0,0,1,76.18,33.31Z" fill="#3d5f6f"/><path d="M84.41,18.7a1,1,0,1,1-1-1A1,1,0,0,1,84.41,18.7Z" fill="#3d5f6f"/><path d="M37.41,26.67a1,1,0,1,1-1-1A1,1,0,0,1,37.41,26.67Z" fill="#3d5f6f"/><path d="M58.92,39a1,1,0,0,1-2,0,1,1,0,1,1,2,0Z" fill="#3d5f6f"/><circle cx="70.65" cy="57.34" r="0.83" fill="#3d5f6f"/><path d="M79.25,47.58a.83.83,0,1,1-.83-.83A.83.83,0,0,1,79.25,47.58Z" fill="#3d5f6f"/><circle cx="87.18" cy="58.73" r="0.83" fill="#3d5f6f"/><path d="M75.07,53.35a.84.84,0,0,1-.83.84.84.84,0,1,1,0-1.67A.83.83,0,0,1,75.07,53.35Z" fill="#3d5f6f"/><path d="M80.61,60.32a.83.83,0,1,1-.83-.83A.84.84,0,0,1,80.61,60.32Z" fill="#3d5f6f"/><circle cx="56.51" cy="56.74" r="0.83" fill="#3d5f6f"/><path d="M74.87,61.72a.83.83,0,1,1-.83-.83A.83.83,0,0,1,74.87,61.72Z" fill="#3d5f6f"/><path d="M29.66,72.27a.83.83,0,1,1-.83-.83A.83.83,0,0,1,29.66,72.27Z" fill="#3d5f6f"/><path d="M92.59,52.76a.83.83,0,1,1-.83-.83A.83.83,0,0,1,92.59,52.76Z" fill="#3d5f6f"/><circle cx="68.53" cy="88.54" r="1.01" fill="#3d5f6f"/><circle cx="57.31" cy="101.95" r="1.01" fill="#3d5f6f"/><path d="M167.37,66.7A1.35,1.35,0,1,1,166,65.35,1.34,1.34,0,0,1,167.37,66.7Z" fill="#9dbbc9"/><circle cx="166.51" cy="58" r="1.35" fill="#9dbbc9"/><circle cx="175.8" cy="58" r="1.35" fill="#9dbbc9"/><path d="M178,66.76a1.35,1.35,0,1,1-1.35-1.35A1.35,1.35,0,0,1,178,66.76Z" fill="#709cb1"/><path d="M182.72,57.47a1.35,1.35,0,1,1-1.34-1.35A1.34,1.34,0,0,1,182.72,57.47Z" fill="#9dbbc9"/><path d="M190.69,55.35A1.35,1.35,0,1,1,189.34,54,1.35,1.35,0,0,1,190.69,55.35Z" fill="#9dbbc9"/><path d="M196.78,62.08a1.35,1.35,0,1,1-1.35-1.35A1.36,1.36,0,0,1,196.78,62.08Z" fill="#9dbbc9"/><path d="M202,62.76a1.35,1.35,0,1,1-1.35-1.35A1.34,1.34,0,0,1,202,62.76Z" fill="#9dbbc9"/><circle cx="194.12" cy="68.09" r="1.35" fill="#9dbbc9"/><path d="M174.76,50.3A1.35,1.35,0,1,1,173.41,49,1.35,1.35,0,0,1,174.76,50.3Z" fill="#9dbbc9"/><path d="M184.32,46.05A1.35,1.35,0,1,1,183,44.7,1.35,1.35,0,0,1,184.32,46.05Z" fill="#9dbbc9"/><path d="M175,45.79a1.35,1.35,0,1,1-1.34-1.35A1.35,1.35,0,0,1,175,45.79Z" fill="#9dbbc9"/><path d="M175.29,41.27a1.35,1.35,0,1,1-1.35-1.35A1.34,1.34,0,0,1,175.29,41.27Z" fill="#9dbbc9"/><path d="M167.46,43.83a1.35,1.35,0,1,1-1.35-1.35A1.35,1.35,0,0,1,167.46,43.83Z" fill="#9dbbc9"/><path d="M175.56,33.31A1.35,1.35,0,1,1,174.21,32,1.36,1.36,0,0,1,175.56,33.31Z" fill="#9dbbc9"/><path d="M180.87,43.13a1.35,1.35,0,1,1-1.35-1.35A1.35,1.35,0,0,1,180.87,43.13Z" fill="#9dbbc9"/><path d="M191,40.74a1.35,1.35,0,1,1-1.35-1.35A1.35,1.35,0,0,1,191,40.74Z" fill="#9dbbc9"/><path d="M202.11,42.34A1.35,1.35,0,1,1,200.76,41,1.35,1.35,0,0,1,202.11,42.34Z" fill="#9dbbc9"/><path d="M205,51.36A1.35,1.35,0,1,1,203.68,50,1.35,1.35,0,0,1,205,51.36Z" fill="#9dbbc9"/><path d="M196.27,54.28a1.35,1.35,0,1,1-1.35-1.35A1.35,1.35,0,0,1,196.27,54.28Z" fill="#9dbbc9"/><path d="M205.83,61.72a1.35,1.35,0,1,1-1.35-1.35A1.36,1.36,0,0,1,205.83,61.72Z" fill="#9dbbc9"/><path d="M211.14,61.19a1.35,1.35,0,1,1-1.35-1.35A1.36,1.36,0,0,1,211.14,61.19Z" fill="#9dbbc9"/><path d="M214.32,69.42A1.35,1.35,0,1,1,213,68.07,1.35,1.35,0,0,1,214.32,69.42Z" fill="#9dbbc9"/><circle cx="223.62" cy="68.65" r="1.35" fill="#9dbbc9"/><path d="M206.89,68.36A1.35,1.35,0,1,1,205.54,67,1.36,1.36,0,0,1,206.89,68.36Z" fill="#709cb1"/><path d="M216.9,52.71a1.35,1.35,0,1,1-1.35-1.35A1.35,1.35,0,0,1,216.9,52.71Z" fill="#9dbbc9"/><circle cx="220.23" cy="55.75" r="1.35" fill="#709cb1"/><path d="M226.27,51.63a1.35,1.35,0,1,1-1.35-1.35A1.35,1.35,0,0,1,226.27,51.63Z" fill="#9dbbc9"/><path d="M232.38,60.66A1.35,1.35,0,1,1,231,59.31,1.36,1.36,0,0,1,232.38,60.66Z" fill="#709cb1"/><path d="M221.76,61.19a1.35,1.35,0,1,1-1.35-1.35A1.36,1.36,0,0,1,221.76,61.19Z" fill="#9dbbc9"/><path d="M205.29,36a1.35,1.35,0,1,1-1.35-1.35A1.34,1.34,0,0,1,205.29,36Z" fill="#9dbbc9"/><path d="M211.93,31.71a1.35,1.35,0,1,1-1.35-1.35A1.34,1.34,0,0,1,211.93,31.71Z" fill="#9dbbc9"/><circle cx="202.88" cy="29.86" r="1.35" fill="#9dbbc9"/><circle cx="205.01" cy="23.48" r="1.35" fill="#9dbbc9"/><path d="M198.39,29.06A1.35,1.35,0,1,1,197,27.71,1.35,1.35,0,0,1,198.39,29.06Z" fill="#9dbbc9"/><path d="M198.13,37a1.35,1.35,0,1,1-1.35-1.34A1.35,1.35,0,0,1,198.13,37Z" fill="#9dbbc9"/><circle cx="190.93" cy="33.04" r="1.35" fill="#9dbbc9"/><path d="M184.58,30.12a1.35,1.35,0,1,1-1.35-1.35A1.34,1.34,0,0,1,184.58,30.12Z" fill="#9dbbc9"/><path d="M193.35,25.63A1.35,1.35,0,1,1,192,24.28,1.36,1.36,0,0,1,193.35,25.63Z" fill="#9dbbc9"/><path d="M201.05,17.13a1.35,1.35,0,1,1-1.35-1.35A1.35,1.35,0,0,1,201.05,17.13Z" fill="#9dbbc9"/><circle cx="215.1" cy="17.11" r="1.35" fill="#9dbbc9"/><path d="M219.1,26.14a1.35,1.35,0,1,1-1.35-1.35A1.35,1.35,0,0,1,219.1,26.14Z" fill="#9dbbc9"/><path d="M232.89,19.14a1.35,1.35,0,1,1-1.35-1.34A1.35,1.35,0,0,1,232.89,19.14Z" fill="#709cb1"/><path d="M249.37,20A1.35,1.35,0,1,1,248,18.68,1.34,1.34,0,0,1,249.37,20Z" fill="#709cb1"/><path d="M248.41,12.78a1.35,1.35,0,1,1-1.35-1.35A1.35,1.35,0,0,1,248.41,12.78Z" fill="#9dbbc9"/><path d="M257.78,13.66a1.35,1.35,0,1,1-1.35-1.35A1.35,1.35,0,0,1,257.78,13.66Z" fill="#9dbbc9"/><path d="M242.73,36a1.35,1.35,0,1,1-1.35-1.35A1.34,1.34,0,0,1,242.73,36Z" fill="#9dbbc9"/><path d="M222,34.37A1.35,1.35,0,1,1,220.67,33,1.35,1.35,0,0,1,222,34.37Z" fill="#9dbbc9"/><path d="M213.79,44.19a1.35,1.35,0,1,1-1.35-1.35A1.34,1.34,0,0,1,213.79,44.19Z" fill="#9dbbc9"/><circle cx="227.31" cy="40.74" r="1.35" fill="#9dbbc9"/><path d="M236.63,55.08a1.35,1.35,0,1,1-1.35-1.35A1.35,1.35,0,0,1,236.63,55.08Z" fill="#9dbbc9"/><path d="M245.65,50.57a1.35,1.35,0,1,1-1.35-1.35A1.35,1.35,0,0,1,245.65,50.57Z" fill="#9dbbc9"/><path d="M244.86,59.59a1.35,1.35,0,1,1-1.35-1.34A1.35,1.35,0,0,1,244.86,59.59Z" fill="#9dbbc9"/><circle cx="248.82" cy="69.95" r="1.35" fill="#9dbbc9"/><path d="M240.34,66.23A1.35,1.35,0,1,1,239,64.88,1.34,1.34,0,0,1,240.34,66.23Z" fill="#9dbbc9"/><circle cx="240.46" cy="80.02" r="1.35" fill="#9dbbc9"/><path d="M251.23,84.82a1.35,1.35,0,1,1-1.35-1.35A1.35,1.35,0,0,1,251.23,84.82Z" fill="#709cb1"/><path d="M267.16,86.94a1.35,1.35,0,1,1-1.35-1.35A1.34,1.34,0,0,1,267.16,86.94Z" fill="#9dbbc9"/><path d="M274.86,72.87a1.35,1.35,0,1,1-1.35-1.35A1.34,1.34,0,0,1,274.86,72.87Z" fill="#709cb1"/><path d="M261.05,70a1.35,1.35,0,1,1-1.34-1.35A1.34,1.34,0,0,1,261.05,70Z" fill="#9dbbc9"/><path d="M270.08,56.14a1.35,1.35,0,1,1-1.35-1.35A1.34,1.34,0,0,1,270.08,56.14Z" fill="#9dbbc9"/><path d="M259.2,42.34A1.35,1.35,0,1,1,257.85,41,1.35,1.35,0,0,1,259.2,42.34Z" fill="#9dbbc9"/><path d="M265.3,28.26A1.35,1.35,0,1,1,264,26.91,1.34,1.34,0,0,1,265.3,28.26Z" fill="#9dbbc9"/><path d="M267.55,8.73a1.35,1.35,0,1,1-1.35-1.35A1.34,1.34,0,0,1,267.55,8.73Z" fill="#9dbbc9"/><path d="M285.73,8.88a1.35,1.35,0,1,1-1.35-1.35A1.36,1.36,0,0,1,285.73,8.88Z" fill="#9dbbc9"/><path d="M280.68,19a1.35,1.35,0,1,1-1.35-1.35A1.35,1.35,0,0,1,280.68,19Z" fill="#709cb1"/><path d="M288.91,30.12a1.35,1.35,0,1,1-1.35-1.35A1.34,1.34,0,0,1,288.91,30.12Z" fill="#9dbbc9"/><path d="M298.49,13.92a1.35,1.35,0,1,1-1.35-1.35A1.34,1.34,0,0,1,298.49,13.92Z" fill="#9dbbc9"/><path d="M307.79,16.31A1.35,1.35,0,1,1,306.44,15,1.35,1.35,0,0,1,307.79,16.31Z" fill="#9dbbc9"/><circle cx="318.92" cy="13.39" r="1.35" fill="#9dbbc9"/><path d="M334.34,16.31A1.35,1.35,0,1,1,333,15,1.34,1.34,0,0,1,334.34,16.31Z" fill="#709cb1"/><circle cx="336.18" cy="31.98" r="1.35" fill="#9dbbc9"/><path d="M349.55,33.2a1.35,1.35,0,1,1-1.35-1.35A1.34,1.34,0,0,1,349.55,33.2Z" fill="#9dbbc9"/><path d="M352.13,27.47a1.35,1.35,0,1,1-1.35-1.35A1.35,1.35,0,0,1,352.13,27.47Z" fill="#9dbbc9"/><path d="M358.24,28.26a1.35,1.35,0,1,1-1.35-1.35A1.35,1.35,0,0,1,358.24,28.26Z" fill="#9dbbc9"/><circle cx="355.29" cy="38.11" r="1.35" fill="#9dbbc9"/><path d="M364.34,46.87A1.35,1.35,0,1,1,363,45.52,1.34,1.34,0,0,1,364.34,46.87Z" fill="#709cb1"/><path d="M362.2,33.29a1.35,1.35,0,1,1-1.35-1.35A1.34,1.34,0,0,1,362.2,33.29Z" fill="#9dbbc9"/><circle cx="370.69" cy="28" r="1.35" fill="#9dbbc9"/><path d="M369.65,23.22a1.35,1.35,0,1,1-1.35-1.35A1.35,1.35,0,0,1,369.65,23.22Z" fill="#9dbbc9"/><path d="M376.56,19.77a1.35,1.35,0,1,1-1.35-1.35A1.36,1.36,0,0,1,376.56,19.77Z" fill="#9dbbc9"/><circle cx="352.11" cy="18.17" r="1.35" fill="#9dbbc9"/><path d="M334.87,40.21a1.35,1.35,0,1,1-1.35-1.35A1.34,1.34,0,0,1,334.87,40.21Z" fill="#9dbbc9"/><circle cx="346" cy="45.52" r="1.35" fill="#9dbbc9"/><circle cx="343.88" cy="59.86" r="1.35" fill="#9dbbc9"/><path d="M337.79,65.7a1.35,1.35,0,1,1-1.35-1.35A1.34,1.34,0,0,1,337.79,65.7Z" fill="#9dbbc9"/><path d="M343.63,73.67a1.35,1.35,0,1,1-1.35-1.35A1.35,1.35,0,0,1,343.63,73.67Z" fill="#9dbbc9"/><path d="M329,64.37A1.35,1.35,0,1,1,327.68,63,1.35,1.35,0,0,1,329,64.37Z" fill="#9dbbc9"/><circle cx="337.5" cy="77.38" r="1.35" fill="#9dbbc9"/><path d="M336.46,90.4a1.35,1.35,0,1,1-1.35-1.35A1.34,1.34,0,0,1,336.46,90.4Z" fill="#9dbbc9"/><path d="M322.92,95.44a1.35,1.35,0,1,1-1.35-1.35A1.34,1.34,0,0,1,322.92,95.44Z" fill="#9dbbc9"/><path d="M322.13,101.55a1.35,1.35,0,1,1-1.35-1.35A1.36,1.36,0,0,1,322.13,101.55Z" fill="#9dbbc9"/><path d="M326.37,109.78a1.35,1.35,0,1,1-1.35-1.35A1.35,1.35,0,0,1,326.37,109.78Z" fill="#9dbbc9"/><circle cx="320.47" cy="114.86" r="1.35" fill="#9dbbc9"/><path d="M314.42,108.45a1.35,1.35,0,1,1-1.34-1.35A1.34,1.34,0,0,1,314.42,108.45Z" fill="#9dbbc9"/><path d="M319.2,126.77a1.35,1.35,0,1,1-1.34-1.35A1.34,1.34,0,0,1,319.2,126.77Z" fill="#9dbbc9"/><path d="M312.57,118.28a1.35,1.35,0,1,1-1.35-1.35A1.35,1.35,0,0,1,312.57,118.28Z" fill="#9dbbc9"/><path d="M310.14,102.61a1.35,1.35,0,1,1-1.35-1.35A1.35,1.35,0,0,1,310.14,102.61Z" fill="#9dbbc9"/><circle cx="302.72" cy="100.24" r="1.35" fill="#9dbbc9"/><path d="M300.09,92.28a1.35,1.35,0,1,1-1.35-1.35A1.36,1.36,0,0,1,300.09,92.28Z" fill="#9dbbc9"/><path d="M287.61,103.69a1.35,1.35,0,1,1-1.35-1.35A1.35,1.35,0,0,1,287.61,103.69Z" fill="#9dbbc9"/><path d="M283.89,115.35a1.35,1.35,0,1,1-1.35-1.34A1.34,1.34,0,0,1,283.89,115.35Z" fill="#9dbbc9"/><path d="M290,119.6a1.35,1.35,0,1,1-1.35-1.35A1.35,1.35,0,0,1,290,119.6Z" fill="#9dbbc9"/><path d="M276.72,100.75a1.35,1.35,0,1,1-1.35-1.35A1.34,1.34,0,0,1,276.72,100.75Z" fill="#709cb1"/><circle cx="274.57" cy="90.93" r="1.35" fill="#9dbbc9"/><path d="M255,91.46a1.35,1.35,0,1,1-1.35-1.35A1.36,1.36,0,0,1,255,91.46Z" fill="#9dbbc9"/><circle cx="248.02" cy="103.96" r="1.35" fill="#9dbbc9"/><circle cx="236.6" cy="108.21" r="1.35" fill="#9dbbc9"/><path d="M236.1,101a1.35,1.35,0,1,1-1.35-1.35A1.36,1.36,0,0,1,236.1,101Z" fill="#709cb1"/><circle cx="226.51" cy="87.74" r="1.35" fill="#9dbbc9"/><circle cx="221.2" cy="82.43" r="1.35" fill="#9dbbc9"/><path d="M224.31,77.21A1.35,1.35,0,1,1,223,75.86,1.35,1.35,0,0,1,224.31,77.21Z" fill="#9dbbc9"/><path d="M234.24,75.53a1.35,1.35,0,1,1-1.35-1.35A1.36,1.36,0,0,1,234.24,75.53Z" fill="#9dbbc9"/><path d="M245.92,89.33A1.35,1.35,0,1,1,244.57,88,1.34,1.34,0,0,1,245.92,89.33Z" fill="#9dbbc9"/><circle cx="291.57" cy="74.2" r="1.35" fill="#9dbbc9"/><path d="M316,74.73a1.35,1.35,0,1,1-1.35-1.35A1.36,1.36,0,0,1,316,74.73Z" fill="#9dbbc9"/><circle cx="318.12" cy="54.55" r="1.35" fill="#709cb1"/><path d="M299.56,56.94a1.35,1.35,0,1,1-1.35-1.35A1.36,1.36,0,0,1,299.56,56.94Z" fill="#9dbbc9"/><circle cx="308.83" cy="39.68" r="1.35" fill="#9dbbc9"/><circle cx="320.24" cy="25.61" r="1.35" fill="#709cb1"/><circle cx="287.32" cy="47.11" r="1.35" fill="#9dbbc9"/><path d="M175,86.44,165.27,65.9l5.79,4.48Zm-8.67-19.2,7.34,15.47-3-12.1Z" fill="#9dbbc9"/><path d="M163.89,77.62l6.9-7.32h.07l21.25-2.41ZM171,70.68l-5.69,6,23.27-8Z" fill="#9dbbc9"/><path d="M173.12,85.54l17.45-17.77-.44,7.61Zm17-16.73-14.54,14.8,14.18-8.47Z" fill="#9dbbc9"/><path d="M156.6,86.79l7.93-10,10.6,8Zm8-9.21L158,86l15.62-1.68Z" fill="#9dbbc9"/><path d="M203.21,80.69l1.52-5.88,11.12,3.7Zm1.8-5.37-1.26,4.87,10.47-1.8Z" fill="#9dbbc9"/><path d="M221.32,82.53l-6.86-4.2L223.08,77Zm-5.72-4,5.49,3.37,1.42-4.43Z" fill="#9dbbc9"/><path d="M212,91.08l-.14-.16L202.4,80l19.26,2.09Zm-8.66-10.59,8.69,10,8.69-8.13Z" fill="#9dbbc9"/><path d="M215.16,106l6-24.47,7.26,22.4Zm6.07-23-5.54,22.53,12.22-1.91Z" fill="#9dbbc9"/><path d="M198.21,109.56l14-19.48,3.6,15.88Zm13.69-18-12.31,17.16,15.48-3.17Z" fill="#9dbbc9"/><path d="M192.6,88.15l-2.94-13.21,13.63,5.24Zm-2.39-12.57,2.64,11.88,9.62-7.16Z" fill="#9dbbc9"/><path d="M168.35,99.06,154,96.32,157.19,86Zm-13.8-3,12.76,2.44-9.95-11.64Z" fill="#9dbbc9"/><path d="M174.05,113.79l-20.16-6.72.21-11.34Zm-19.76-7,18.08,6-17.89-16.2Z" fill="#9dbbc9"/><path d="M173.37,114.3l-5.75-15.55,0-.07,6.94-15.1Zm-5.32-15.53,5,13.52,1.06-26.72Z" fill="#9dbbc9"/><path d="M165,122.53l-11.71-16.18,20.44,6.81Zm-10.14-15,10.19,14.09,7.6-8.16Z" fill="#9dbbc9"/><path d="M164.51,122.34l8.68-9.31,8.88,6.77Zm8.72-8.78-7.65,8.22,15.5-2.24Z" fill="#9dbbc9"/><path d="M199.21,109.48l-13.31-6.24,6.86-16ZM186.41,103l12.18,5.71-5.9-20.35Z" fill="#9dbbc9"/><path d="M181.69,120l-8.81-6.71,13.63-10.69Zm-8.15-6.72,7.92,6,4.34-15.66Z" fill="#9dbbc9"/><path d="M186.19,103.57,173.94,84.3,193,87.65ZM174.76,84.85l11.36,17.87L192.44,88Z" fill="#9dbbc9"/><path d="M189.23,125.27,181,119.65l18.79-11.44Zm-7.11-5.59,6.93,4.74L198,110Z" fill="#9dbbc9"/><path d="M187.28,132.53l1.7-7.89h.17l17.52.84Zm2-7.48-1.48,6.86,16.85-6.12Z" fill="#9dbbc9"/><path d="M220.3,114.1,215,105.37,238,113Zm-4.42-8,4.64,7.6,15.38-.93Z" fill="#9dbbc9"/><path d="M237.21,113.47,227.16,103l9.36,5Zm-8-9,7.48,7.82-.51-4.08Z" fill="#9dbbc9"/><path d="M240.08,125.66l-3.39-12.9,10.15-3ZM237.18,113l3,11.39,6-14Z" fill="#9dbbc9"/><path d="M205.55,126.13l-7.14-17.43,22.67,5Zm-6.16-16.6,6.41,15.63,13.93-11.11Z" fill="#9dbbc9"/><path d="M224.78,129.59l-4.87-16.32,21,11.87Zm-3.87-15.07,4.28,14.34L239.35,125Z" fill="#9dbbc9"/><path d="M229.44,137.56,204.62,126l36.19-1.27ZM207.12,126.5l22.17,10.33,10.15-11.46Z" fill="#9dbbc9"/><path d="M232,156.3l-11.83-16.69,0-.11L225,128.62Zm-11.37-16.74,10.47,14.77-6.17-24.49Z" fill="#9dbbc9"/><path d="M242.05,165.22l-5.77-8.34,7.69-7.06Zm-5.25-8.28,5,7.19,1.66-13.28Z" fill="#9dbbc9"/><path d="M235.51,172.2l.86-15.88,5.8,8.37Zm1.2-14.7L236,171.09l5.69-6.43Z" fill="#9dbbc9"/><path d="M194.22,142.58l-.07-.1-7-10.57.48.11,34,7.63ZM188,132.52l6.43,9.64,24.77-2.65Z" fill="#9dbbc9"/><path d="M207.08,150.3,194,142.43l12-16.77Zm-12.47-8,12,7.27-1-22.75Z" fill="#9dbbc9"/><path d="M214.92,159.71l-8.34-9.8,14.18-10.85ZM207.15,150l7.59,8.92,5.31-18.78Z" fill="#9dbbc9"/><path d="M223.66,161.81l-10.09-2.52,19.27-4.58Zm-7.57-2.5,7.44,1.85,6.75-5.23Z" fill="#9dbbc9"/><path d="M220,172.57l3.5-11.59,3.5,6.34-.14.1ZM223.65,162l-2.88,9.52,5.75-4.31Z" fill="#9dbbc9"/><path d="M195.34,152l-1.27-10,13.37,8.06Zm-.77-9.21,1.12,8.75,10.6-1.67Z" fill="#9dbbc9"/><path d="M216.7,159.71l-25.48-1.54,4.17-6.81Zm-24.45-2.07L213,158.89l-17.32-6.79Z" fill="#9dbbc9"/><path d="M222.27,172.63l-25.76-3.9-5.41-11.47Zm-25.36-4.44,21.64,3.27-26.18-12.91Z" fill="#9dbbc9"/><path d="M196.3,176.89l.22-8.71,13.18,4.88Zm.6-8.15-.18,7.62,11.7-3.34Z" fill="#9dbbc9"/><path d="M213.2,184.65l-4.42-11.79,12-1.05Zm-3.87-11.43,3.95,10.51L220,172.28Z" fill="#9dbbc9"/><path d="M202,187.82l-5.9-11.61,17.72,8ZM197,177l5.24,10.3,10.48-3.18Z" fill="#9dbbc9"/><path d="M208.52,174.51l-1.9-25.15,8.24,9.3Zm-1.41-24,1.68,22.26,5.61-14Z" fill="#9dbbc9"/><path d="M172.23,70.49a1.35,1.35,0,1,1-1.35-1.35A1.34,1.34,0,0,1,172.23,70.49Z" fill="#9dbbc9"/><path d="M166,77.19a1.35,1.35,0,1,1-1.35-1.35A1.35,1.35,0,0,1,166,77.19Z" fill="#9dbbc9"/><circle cx="157.27" cy="86.65" r="1.35" fill="#9dbbc9"/><path d="M155.61,96.12a1.35,1.35,0,1,1-1.35-1.35A1.35,1.35,0,0,1,155.61,96.12Z" fill="#9dbbc9"/><path d="M155.38,106.73a1.35,1.35,0,1,1-1.35-1.34A1.34,1.34,0,0,1,155.38,106.73Z" fill="#9dbbc9"/><path d="M166.46,121.74a1.35,1.35,0,1,1-1.35-1.35A1.35,1.35,0,0,1,166.46,121.74Z" fill="#9dbbc9"/><path d="M183.08,119.66a1.35,1.35,0,1,1-1.35-1.35A1.34,1.34,0,0,1,183.08,119.66Z" fill="#9dbbc9"/><path d="M190.7,124.74a1.35,1.35,0,1,1-1.35-1.35A1.34,1.34,0,0,1,190.7,124.74Z" fill="#9dbbc9"/><circle cx="187.97" cy="131.9" r="1.35" fill="#709cb1"/><path d="M195.78,142.51a1.35,1.35,0,1,1-1.35-1.34A1.34,1.34,0,0,1,195.78,142.51Z" fill="#9dbbc9"/><path d="M196.7,151.75a1.35,1.35,0,1,1-1.35-1.35A1.35,1.35,0,0,1,196.7,151.75Z" fill="#9dbbc9"/><path d="M193.24,158a1.35,1.35,0,1,1-1.35-1.35A1.34,1.34,0,0,1,193.24,158Z" fill="#9dbbc9"/><circle cx="196.97" cy="168.14" r="1.35" fill="#9dbbc9"/><path d="M198.09,176.45a1.35,1.35,0,1,1-1.35-1.35A1.36,1.36,0,0,1,198.09,176.45Z" fill="#9dbbc9"/><path d="M203.63,187.76a1.35,1.35,0,1,1-1.35-1.35A1.36,1.36,0,0,1,203.63,187.76Z" fill="#9dbbc9"/><path d="M214.71,184.3a1.35,1.35,0,1,1-1.35-1.35A1.36,1.36,0,0,1,214.71,184.3Z" fill="#9dbbc9"/><path d="M222.09,172.06a1.35,1.35,0,1,1-1.34-1.35A1.34,1.34,0,0,1,222.09,172.06Z" fill="#709cb1"/><path d="M227.87,167.68a1.35,1.35,0,1,1-1.35-1.35A1.36,1.36,0,0,1,227.87,167.68Z" fill="#9dbbc9"/><path d="M225.1,161.67a1.35,1.35,0,1,1-1.35-1.35A1.35,1.35,0,0,1,225.1,161.67Z" fill="#9dbbc9"/><path d="M232.94,155.44a1.35,1.35,0,1,1-1.34-1.35A1.34,1.34,0,0,1,232.94,155.44Z" fill="#9dbbc9"/><path d="M230.64,137.44a1.35,1.35,0,1,1-1.35-1.35A1.36,1.36,0,0,1,230.64,137.44Z" fill="#709cb1"/><path d="M241.49,125a1.35,1.35,0,1,1-1.35-1.35A1.35,1.35,0,0,1,241.49,125Z" fill="#9dbbc9"/><circle cx="246.6" cy="110.43" r="1.35" fill="#9dbbc9"/><path d="M238,113a1.35,1.35,0,1,1-1.35-1.35A1.35,1.35,0,0,1,238,113Z" fill="#9dbbc9"/><path d="M229.25,103.73a1.35,1.35,0,1,1-1.35-1.35A1.34,1.34,0,0,1,229.25,103.73Z" fill="#9dbbc9"/><path d="M213.55,90.58a1.35,1.35,0,1,1-1.35-1.35A1.35,1.35,0,0,1,213.55,90.58Z" fill="#709cb1"/><path d="M216.32,78.8A1.35,1.35,0,1,1,215,77.45,1.34,1.34,0,0,1,216.32,78.8Z" fill="#9dbbc9"/><circle cx="204.82" cy="75.8" r="1.35" fill="#9dbbc9"/><path d="M204.55,80.42a1.35,1.35,0,1,1-1.35-1.35A1.35,1.35,0,0,1,204.55,80.42Z" fill="#9dbbc9"/><path d="M191.16,75.11a1.35,1.35,0,1,1-1.35-1.35A1.34,1.34,0,0,1,191.16,75.11Z" fill="#9dbbc9"/><circle cx="190.28" cy="68.18" r="1.35" fill="#9dbbc9"/><circle cx="174.35" cy="84.57" r="1.35" fill="#9dbbc9"/><path d="M194.39,87.58a1.35,1.35,0,1,1-1.34-1.35A1.34,1.34,0,0,1,194.39,87.58Z" fill="#9dbbc9"/><path d="M169.23,98.89a1.35,1.35,0,1,1-1.35-1.35A1.35,1.35,0,0,1,169.23,98.89Z" fill="#9dbbc9"/><circle cx="173.19" cy="113.2" r="1.35" fill="#9dbbc9"/><circle cx="186.12" cy="103.04" r="1.35" fill="#9dbbc9"/><circle cx="198.82" cy="109.27" r="1.35" fill="#9dbbc9"/><path d="M217,105.81a1.35,1.35,0,1,1-1.35-1.35A1.35,1.35,0,0,1,217,105.81Z" fill="#9dbbc9"/><circle cx="220.51" cy="113.89" r="1.35" fill="#709cb1"/><path d="M207.32,125.89a1.35,1.35,0,1,1-1.35-1.35A1.34,1.34,0,0,1,207.32,125.89Z" fill="#9dbbc9"/><path d="M226.48,129.36a1.35,1.35,0,1,1-1.35-1.35A1.35,1.35,0,0,1,226.48,129.36Z" fill="#9dbbc9"/><path d="M222.09,140a1.35,1.35,0,1,1-1.34-1.35A1.34,1.34,0,0,1,222.09,140Z" fill="#9dbbc9"/><circle cx="206.66" cy="150.36" r="1.35" fill="#9dbbc9"/><circle cx="214.74" cy="159.13" r="1.35" fill="#709cb1"/><path d="M210.32,173.22a1.35,1.35,0,1,1-1.35-1.35A1.35,1.35,0,0,1,210.32,173.22Z" fill="#9dbbc9"/><circle cx="235.75" cy="171.83" r="1.35" fill="#9dbbc9"/><path d="M245,150.36A1.35,1.35,0,1,1,243.6,149,1.35,1.35,0,0,1,245,150.36Z" fill="#9dbbc9"/><path d="M243.1,164.68a1.35,1.35,0,1,1-1.35-1.35A1.34,1.34,0,0,1,243.1,164.68Z" fill="#9dbbc9"/><path d="M238,157.06a1.35,1.35,0,1,1-1.35-1.35A1.35,1.35,0,0,1,238,157.06Z" fill="#9dbbc9"/><path d="M216.05,106l-.39,0-29.72-2.79L186,103l7-15.61Zm-29.75-3,29,2.72L193.09,87.77Z" fill="#84aabb"/><path d="M220.91,140.3l-15.14-14.11,0-.08,9.92-20.7Zm-14.85-14.16,14.52,13.52-5-33.45Z" fill="#84aabb"/><path d="M237.05,157.26l-30.5-6.8v-.09l-.76-24.5.21.21Zm-30.27-7,29.52,6.58-30.25-30.39Z" fill="#84aabb"/><path d="M173.21,113.37l-.1-.08L154,96.05l39.33-8.66ZM154.52,96.18,173.18,113l19.57-25.26Z" fill="#84aabb"/><path d="M185.91,103.81l3.47-29.19,3.79,13Zm3.57-28-3.15,26.47,6.59-14.71Z" fill="#84aabb"/><path d="M206.22,126,173,113.23l13.19-10.35.07.08Zm-32.79-12.87,32,12.3L186.1,103.21Z" fill="#84aabb"/><path d="M202.07,188.48l4.61-39.24,2.36,24.3,0,0Zm4.58-37L202.48,187l6.31-13.55Z" fill="#84aabb"/><path d="M155.61,96.12a1.35,1.35,0,1,1-1.35-1.35A1.35,1.35,0,0,1,155.61,96.12Z" fill="#84aabb"/><path d="M203.63,187.76a1.35,1.35,0,1,1-1.35-1.35A1.36,1.36,0,0,1,203.63,187.76Z" fill="#84aabb"/><path d="M191.16,75.11a1.35,1.35,0,1,1-1.35-1.35A1.34,1.34,0,0,1,191.16,75.11Z" fill="#709cb1"/><path d="M194.39,87.58a1.35,1.35,0,1,1-1.34-1.35A1.34,1.34,0,0,1,194.39,87.58Z" fill="#84aabb"/><circle cx="173.19" cy="113.2" r="1.35" fill="#709cb1"/><circle cx="186.12" cy="103.04" r="1.35" fill="#84aabb"/><path d="M217,105.81a1.35,1.35,0,1,1-1.35-1.35A1.35,1.35,0,0,1,217,105.81Z" fill="#84aabb"/><path d="M207.32,125.89a1.35,1.35,0,1,1-1.35-1.35A1.34,1.34,0,0,1,207.32,125.89Z" fill="#84aabb"/><path d="M222.09,140a1.35,1.35,0,1,1-1.34-1.35A1.34,1.34,0,0,1,222.09,140Z" fill="#84aabb"/><circle cx="206.66" cy="150.36" r="1.35" fill="#84aabb"/><path d="M243.1,164.68a1.35,1.35,0,1,1-1.35-1.35A1.34,1.34,0,0,1,243.1,164.68Z" fill="#709cb1"/><path d="M238,157.06a1.35,1.35,0,1,1-1.35-1.35A1.35,1.35,0,0,1,238,157.06Z" fill="#84aabb"/><path d="M181.45,58.05l-7.84-16.82,6,1.81v.08Zm-7.4-16.44,7,15-1.62-13.36Z" fill="#84aabb"/><path d="M195.25,63.89l-.64-9.67,5.88-12,.56.21Zm0-9.55.39,5.92,4-15Z" fill="#84aabb"/><path d="M191.21,32.76l0-.23,11.71-2.8h0l8.51,2.05ZM202.88,30l-10.41,2.48,17.27-.83Z" fill="#84aabb"/><path d="M227.67,41.07l-17.31-9.34L217.78,26ZM210.8,31.7,227,40.41l-9.23-14.1Z" fill="#84aabb"/><path d="M244.27,60.14l-9.08-5L227,39.55ZM235.37,55l7.9,4.33L228.2,41.4Z" fill="#84aabb"/><path d="M269.09,56.41,226.8,40.31l31.11,1.91,0,0ZM228.35,40.64l40,15.24L257.79,42.45Z" fill="#84aabb"/><path d="M200.6,42.07l10-10.5.08,0,17.11,9.23-.43,0Zm10-10.21-9.43,9.94,25.69-1.16Z" fill="#84aabb"/><path d="M233.24,76.08l-13-14.94.15-.06,15.06-6.19,0,.2ZM220.61,61.23l12.45,14.28,2.08-20.24Z" fill="#84aabb"/><path d="M243.54,59.75,235,55.08l23-12.9Zm-8-4.67,8,4.36L257.08,43Z" fill="#84aabb"/><path d="M260,70.11,243.17,59.52,269,56l-.14.22ZM243.85,59.67l16.08,10.12,8.56-13.49Z" fill="#84aabb"/><path d="M265.65,86.84l-.08-.26-5.74-16.67.06,0,27.84-23.24-.31.55ZM260.11,70l5.59,16.26,21.21-38.64Z" fill="#84aabb"/><path d="M248.21,104.25l-22.1-16.67,18.56,1.64,0,.09ZM226.92,87.9l20.91,15.76-3.36-14.22Z" fill="#84aabb"/><path d="M236.14,108.25,254,90.94l-5.85,13.11-.05,0ZM253.24,92l-16.16,15.69,10.85-3.81Z" fill="#84aabb"/><path d="M264,87.68l35-31.81L291.8,74.42ZM297.47,58l-30.1,27.4,24-11.43Z" fill="#84aabb"/><path d="M313.93,75.17l13.72-10.92h.05l9.18,1.39ZM327.71,64.5l-12.3,9.79L336,65.76Z" fill="#84aabb"/><path d="M321.5,95.6l0-.12-7-21.08,20.93,16Zm-6.59-20.54,6.74,20.23,13.22-4.93Z" fill="#84aabb"/><path d="M302.65,100.38l0-.09L291.29,73.86l.35.24,30.21,21.39ZM291.84,74.54l11,25.56,18.5-4.71Z" fill="#84aabb"/><path d="M288.81,119.86l-6.41-4.46,0-.08,3.87-12.15.08.51Zm-6.13-4.55,5.81,4-2.27-15.13Z" fill="#84aabb"/><path d="M286.27,103.86,265.42,86.48l.23,0,49.4-11.91-.3.29ZM265.94,86.61l20.31,16.92,28-28.59Z" fill="#84aabb"/><path d="M321.63,95.77l-.16-.27L298,56.75l29.87,7.54,0,.11ZM298.46,57.13l23.05,38,6-30.65Z" fill="#84aabb"/><path d="M342.76,74.11l-15.62-9.94,9.37,1.42,0,0Zm-14.54-9.53,13.59,8.64-5.44-7.41Z" fill="#84aabb"/><path d="M317.82,127.48l-.13-.17L311,118.24l.11-.07,14.13-8.69-.15.34Zm-6.43-9.17,6.37,8.69,7-16.93Z" fill="#84aabb"/><path d="M181.28,58l-.11-.26-7.26-16.54,9,4.65v0Zm-7-16.45,7,15.86L182.75,46Z" fill="#3d5f6f"/><path d="M201.13,42.31l-11.61-1.5v-.08l1.22-8,.11.1ZM189.7,40.67l11,1.42-9.79-9Z" fill="#3d5f6f"/><path d="M220.4,47.87l-9.79-16.31.06,0L217.81,26l0,.14ZM210.82,31.6l9.33,15.55-2.46-20.86Z" fill="#3d5f6f"/><path d="M200.7,42.29l10-10.81.05,0,16.84,9.3h-.28Zm10-10.61-9.65,10.43L227,40.68Z" fill="#3d5f6f"/><path d="M235.16,55.28l-8.1-15,.09,0,14.49-4.56,0,.15Zm-7.87-14.89,7.84,14.49L241.39,36Z" fill="#3d5f6f"/><path d="M269,56.31,226.8,40.64l.51,0,30.84,1.6,0,0ZM227.83,40.85,268.5,56,258.07,42.41Z" fill="#3d5f6f"/><path d="M203.56,51.31l-.05-.15,24.18-10.67-7.38,7.1h0ZM226.93,41,204.32,51l15.92-3.54Z" fill="#3d5f6f"/><path d="M209.78,61.19l-.06-.09-6.3-9.92,17.05-3.79Zm-6.11-9.91,6.12,9.64,10.29-13.28Z" fill="#3d5f6f"/><path d="M195.12,62.78l5.77-20.87,2.74,9.34,0,0Zm5.77-20.29L195.51,62l8-10.78Z" fill="#3d5f6f"/><path d="M189.42,55.6l-6.69-9.7,7-5.32Zm-6.48-9.66,6.33,9.16.25-14.19Z" fill="#3d5f6f"/><path d="M165.36,67.08l10.27-9.29,6.2-.28-.28.16ZM175.7,58l-9.11,8.23,14.6-8.48Z" fill="#3d5f6f"/><path d="M175.5,58l7.6-12.07,6.37,9.49-.11,0Zm7.6-11.78-7.27,11.56,13.38-2.47Z" fill="#3d5f6f"/><path d="M195.48,62.7l-6.22-7.33v0l.28-15.17Zm-6.06-7.38,5.73,6.74-5.47-20.74Z" fill="#3d5f6f"/><path d="M189.31,55.44l0,0L183,46l.13,0,44.85-5.38-.6.23Zm-6.07-9.32,6.13,9.13L226.68,40.9Z" fill="#3d5f6f"/><path d="M227.48,40.86l-.19,0-36.84-7.9,27.34-6.87,0,0Zm-36.33-8,36,7.72-9.42-14.39Z" fill="#3d5f6f"/><path d="M233.21,75.72l-.12-.14L220.54,61.42l.1,0L235.24,55l0,.14Zm-12.4-14.24,12.28,13.86,2-20.13Z" fill="#3d5f6f"/><path d="M266.27,88.12,234.66,55l23.68-13.14.07.41Zm-30.64-33,29.72,31.14L257.89,42.8Z" fill="#3d5f6f"/><path d="M291.6,74.59l-.08-.06-23-18.48h.24l29.58,1.07ZM269,56.23l22.56,18.1,6.56-17Z" fill="#3d5f6f"/><path d="M302.67,99.78l0-.06L291.38,74.24l.23.16,30.15,20.81ZM291.75,74.69l11,24.91,18.61-4.46Z" fill="#3d5f6f"/><path d="M321.41,95.31l.09-.17,15-30.07-1.08,25.38Zm14.94-29.5L321.73,95l13.57-4.7Z" fill="#3d5f6f"/><path d="M342.5,73.57,298.18,57.28l0-.15,38.27,8.23,0,0Zm-43.2-16,42.76,15.72-5.67-7.73Z" fill="#3d5f6f"/><path d="M265.86,87.51,241.31,35.57l27.51,20.54v0ZM241.73,36.09l24,50.82,2.89-30.73Z" fill="#3d5f6f"/><path d="M325.2,109.41l-.21-.09-22.34-9.58v0l-4.56-42.91Zm-22.41-9.78,22.06,9.46L298.33,57.62Z" fill="#3d5f6f"/><path d="M248,104.19l-3.54-15,.13,0,8.85,2.14,0,.09Zm-3.32-14.75L248,103.68l5.18-12.17Z" fill="#3d5f6f"/><path d="M244.74,89.42,192.3,87.8l.47-.14,40.41-12.23,0,0Zm-51.46-1.74,51.12,1.57L233.13,75.62Z" fill="#3d5f6f"/><path d="M206,126.33l-.27-.3L185.8,103.15l0,0,7-15.59.07.19Zm-20-23.2,19.62,22.49L192.78,88Z" fill="#3d5f6f"/><path d="M205.62,126.16l10.22-20.44h0l32.5-1.88-.33.17Zm10.32-20.29-10,19.92L247.66,104Z" fill="#3d5f6f"/><path d="M186.05,103.26l-.18,0L154.34,96l.18-.1,20.25-11.45Zm-31.27-7.32L185.72,103l-11-18.36Z" fill="#3d5f6f"/><path d="M174.81,84.88l-8.93-18.27,0,0,9.83-8.89v.19Zm-8.74-18.23,8.6,17.58.91-26.18Z" fill="#3d5f6f"/><path d="M236.32,157.45l-29.53-7v-.06l-1.08-24.64.15.15Zm-29.38-7.11,28.89,6.83-29.94-31Z" fill="#3d5f6f"/><path d="M202.34,188.32,192.71,87.75l.16,0L207,150.4h0ZM193,89l9.37,97.84,4.42-36.43Z" fill="#3d5f6f"/><path d="M258.1,42.42h0l-17.6-6.5.37,0L351,27.65l0,.16ZM241.22,36l16.9,6.24L349.1,28Z" fill="#3d5f6f"/><path d="M354.26,67.84l-3.53-17.23L360,56.8Zm-2.94-16.36,3.11,15.18,5.06-9.73Z" fill="#9dbbc9"/><path d="M359.78,72.89,354.16,67l-3.33-16,.38-.11Zm-5.25-6,4.15,4.33-7-17.83Z" fill="#9dbbc9"/><path d="M348.38,80l-1.32-7.93,8.41-5.77Zm-.67-7.65,1,5.78,5.17-10Z" fill="#9dbbc9"/><path d="M359,73.41l0-1.48L347,72.46l13-16.19-.52,15.25h.16Zm.55-15.95L347.82,72l11.23-.49Z" fill="#9dbbc9"/><path d="M316.12,138.49l-.1-.21-8.84-17.88,15.11,13.83Zm-7.64-16.36,7.79,15.77,5.38-3.71Z" fill="#9dbbc9"/><path d="M324.53,141.32l-8.56-3,1.93-12.19Zm-8.11-3.26,7.38,2.58-5.72-13.1Z" fill="#9dbbc9"/><path d="M329.44,135.05l-.08-.15-3.83-7.45,11.73,4.78Zm-3.06-6.83,3.25,6.34,6.52-2.36Z" fill="#9dbbc9"/><path d="M329.72,134.89l-.37-.15,10.16-27.88.38.11-2.59,11.35ZM338.8,110l-7.37,20.23,5.49-12Z" fill="#9dbbc9"/><path d="M349.15,110.67l-9.89-3,1.93-8.39Zm-9.42-3.28,8.43,2.56-6.78-9.71Z" fill="#9dbbc9"/><path d="M346.9,120.54l-6.12-21.86,8.09,11.58Zm-5.1-19.71,5,18,1.61-8.45Z" fill="#9dbbc9"/><path d="M345.38,137.7l-9.13-5.53,12.32-4.67Zm-8.22-5.44,8,4.83,2.79-8.92Z" fill="#9dbbc9"/><path d="M336.9,132.53l-11.52-5.45,11.94-9.22ZM326.13,127l10.39,4.91.37-13.22Z" fill="#9dbbc9"/><path d="M342.91,147.07l-21.48-6.62L351.36,143Zm-16-5.56,16,4.92,6.28-3.05Z" fill="#9dbbc9"/><path d="M368.88,144.38l-21.6-17.07,14.25,4.54,0,.07Zm-19.64-16,18.23,14.4-6.2-10.57Z" fill="#9dbbc9"/><path d="M380.62,146.51l-21.48-16.28,19.44,8.14ZM363.26,132.6,379.62,145l-1.55-6.2Z" fill="#9dbbc9"/><path d="M380.39,146l-12.85-2.36,10.92-5.35Zm-11.59-2.53,11.05,2-1.66-6.63Z" fill="#9dbbc9"/><path d="M368.19,175.3l-1.81-15.23,4.54-13.18Zm-1.41-15.18,1.37,11.46,2.05-21.38Z" fill="#9dbbc9"/><path d="M367.91,174.09l2.53-26.33,6.53,15Zm2.78-24.76-2.26,23.46,8.07-10.14Z" fill="#9dbbc9"/><path d="M381.63,174.39l-15.76-14.68,11,2.81Zm-14.35-13.91,13.32,12.4-4-10Z" fill="#9dbbc9"/><path d="M356.64,165.29l3.87-9.68,6.46,4.51Zm4.06-9.07-3.3,8.24,8.79-4.39Z" fill="#9dbbc9"/><path d="M360.73,156.31l-7.57-7.14,9.08-.44Zm-6.62-6.79,6.37,6,1.27-6.37Z" fill="#9dbbc9"/><path d="M357.61,166.19l-8.53-11.68,4.71-5.84Zm-7.78-11.66,6.6,9L353.48,150Z" fill="#9dbbc9"/><path d="M345.55,171.36,339,160.83l10.74-6.74Zm-6-10.4,5.82,9.38L349.14,155Z" fill="#9dbbc9"/><path d="M350.46,182.52l-5.25-11.76,12.18-6.3Zm-4.73-11.58,4.7,10.54,6.22-16.19Z" fill="#9dbbc9"/><path d="M353.35,190l3.52-25.47,11.6,8.9Zm3.82-24.74-3.25,23.52,14-15.3Z" fill="#9dbbc9"/><path d="M372.49,188.67l-4.59-15.44,13.56.21Zm-4.05-15,4.17,14,8.16-13.85Z" fill="#9dbbc9"/><path d="M362.8,194.58l-9.87-5.37,20.39-1.28Zm-8.46-5.06,8.45,4.6,9-5.7Z" fill="#9dbbc9"/><path d="M353.57,189.73l-3.38-7.82.17-.09,18.66-9Zm-2.86-7.63,3,6.91,13.63-14.94Z" fill="#9dbbc9"/><path d="M331.81,175.68l-4-10.74,17.68,6.32Zm-3.33-10.08,3.57,9.58,12.2-3.94Z" fill="#9dbbc9"/><path d="M338.47,186.78l-10.6-21.61.2-.08,11.44-4.49v.3Zm-10.05-21.4,9.71,19.81,1-24Z" fill="#9dbbc9"/><path d="M326.72,186.43l1.44-20.83,17.12,5.57Zm1.8-20.29-1.34,19.4,17.28-14.22Z" fill="#9dbbc9"/><path d="M338.18,185.73l-7.83-11.09L351.44,182Zm-6.27-9.91,6.51,9.22,11-3.07Z" fill="#9dbbc9"/><path d="M326.1,186.3l19.65-16.16-7.86,15.94ZM344,172.36,327.8,185.67l9.72-.18Z" fill="#9dbbc9"/><path d="M359.2,202.23l3.44-8,.05,0,11.17-7.07Zm3.75-7.75-2.53,5.93,10.82-11.17Z" fill="#9dbbc9"/><path d="M381.38,207.81,401,186.88l5.29,5.92-.21.13ZM401,187.47,383.64,206l22.06-13.27Z" fill="#9dbbc9"/><path d="M397.29,200.28l3.64-13.51,5.37,6Zm3.84-12.69L398,199.17l7.72-6.44Z" fill="#9dbbc9"/><path d="M331.05,134.76a1.35,1.35,0,1,1-1.35-1.35A1.35,1.35,0,0,1,331.05,134.76Z" fill="#84aabb"/><path d="M338.24,118.37a1.35,1.35,0,1,1-1.35-1.35A1.36,1.36,0,0,1,338.24,118.37Z" fill="#84aabb"/><path d="M308.84,121.09a1.35,1.35,0,1,1-1.35-1.35A1.36,1.36,0,0,1,308.84,121.09Z" fill="#84aabb"/><circle cx="323.95" cy="140.81" r="1.35" fill="#84aabb"/><path d="M346.58,137.4a1.35,1.35,0,1,1-1.35-1.35A1.35,1.35,0,0,1,346.58,137.4Z" fill="#84aabb"/><path d="M373.46,188.16a1.35,1.35,0,1,1-1.34-1.35A1.34,1.34,0,0,1,373.46,188.16Z" fill="#84aabb"/><circle cx="376.46" cy="162.53" r="1.35" fill="#84aabb"/><path d="M369.58,173.24a1.35,1.35,0,1,1-1.35-1.34A1.34,1.34,0,0,1,369.58,173.24Z" fill="#84aabb"/><path d="M346.58,170.94a1.35,1.35,0,1,1-1.35-1.35A1.34,1.34,0,0,1,346.58,170.94Z" fill="#84aabb"/><path d="M384.06,206.74a1.35,1.35,0,1,1-1.35-1.34A1.34,1.34,0,0,1,384.06,206.74Z" fill="#84aabb"/><path d="M349.75,78.65a1.35,1.35,0,1,1-1.35-1.35A1.34,1.34,0,0,1,349.75,78.65Z" fill="#84aabb"/><path d="M360.56,72a1.35,1.35,0,1,1-1.35-1.35A1.36,1.36,0,0,1,360.56,72Z" fill="#84aabb"/><circle cx="350.98" cy="51.04" r="1.35" fill="#84aabb"/><path d="M348.26,78.88l0-.24,2.63-28.11,8.45,21.53-.09,0Zm2.79-27.33-2.51,26.88L359.06,72Z" fill="#84aabb"/><path d="M318,127.8l-11.08-5.86,3.93-4.25Zm-10.69-5.93,9.91,5.25-6.39-9.05Z" fill="#84aabb"/><path d="M345.43,137.55l-.22,0-15.68-2.66,7.36-16.78.11.25Zm-15.56-2.89L345,137.24l-8.14-18.58Z" fill="#84aabb"/><path d="M323.91,141l-6.19-14.72.34.23,11.82,8.2-.09.1ZM318.26,127,324,140.6l5.53-5.83Z" fill="#84aabb"/><path d="M345.46,137.61l-27.78-11,.26-.12,19-8.32.05.11Zm-27.16-11L345,137.18l-8.18-18.66Z" fill="#84aabb"/><path d="M372.16,189.65l-4.25-17.84,9-10.27ZM368.56,172l3.51,14.68L376,163.52Z" fill="#84aabb"/><path d="M372.31,188.42l-.26-.16-27.3-17.48.49,0,23,2.31,0,.08Zm-26.59-17.31,26.2,16.78-3.84-14.54Z" fill="#84aabb"/><path d="M368.23,173.36h-.07L344.57,171l.63-.17,31.58-8.51Zm-22.34-2.47,22.23,2.22,8-10.37Z" fill="#84aabb"/><path d="M167.37,66.7A1.35,1.35,0,1,1,166,65.35,1.34,1.34,0,0,1,167.37,66.7Z" fill="#84aabb"/><path d="M182.72,57.47a1.35,1.35,0,1,1-1.34-1.35A1.34,1.34,0,0,1,182.72,57.47Z" fill="#84aabb"/><path d="M196.78,62.08a1.35,1.35,0,1,1-1.35-1.35A1.36,1.36,0,0,1,196.78,62.08Z" fill="#84aabb"/><path d="M184.32,46.05A1.35,1.35,0,1,1,183,44.7,1.35,1.35,0,0,1,184.32,46.05Z" fill="#84aabb"/><path d="M175.29,41.27a1.35,1.35,0,1,1-1.35-1.35A1.34,1.34,0,0,1,175.29,41.27Z" fill="#84aabb"/><path d="M180.87,43.13a1.35,1.35,0,1,1-1.35-1.35A1.35,1.35,0,0,1,180.87,43.13Z" fill="#84aabb"/><path d="M202.11,42.34A1.35,1.35,0,1,1,200.76,41,1.35,1.35,0,0,1,202.11,42.34Z" fill="#84aabb"/><path d="M205,51.36A1.35,1.35,0,1,1,203.68,50,1.35,1.35,0,0,1,205,51.36Z" fill="#84aabb"/><path d="M196.27,54.28a1.35,1.35,0,1,1-1.35-1.35A1.35,1.35,0,0,1,196.27,54.28Z" fill="#84aabb"/><path d="M221.76,61.19a1.35,1.35,0,1,1-1.35-1.35A1.36,1.36,0,0,1,221.76,61.19Z" fill="#84aabb"/><path d="M211.93,31.71a1.35,1.35,0,1,1-1.35-1.35A1.34,1.34,0,0,1,211.93,31.71Z" fill="#84aabb"/><circle cx="202.88" cy="29.86" r="1.35" fill="#84aabb"/><circle cx="190.93" cy="33.04" r="1.35" fill="#84aabb"/><path d="M219.1,26.14a1.35,1.35,0,1,1-1.35-1.35A1.35,1.35,0,0,1,219.1,26.14Z" fill="#84aabb"/><circle cx="227.31" cy="40.74" r="1.35" fill="#84aabb"/><path d="M236.63,55.08a1.35,1.35,0,1,1-1.35-1.35A1.35,1.35,0,0,1,236.63,55.08Z" fill="#84aabb"/><path d="M244.86,59.59a1.35,1.35,0,1,1-1.35-1.34A1.35,1.35,0,0,1,244.86,59.59Z" fill="#84aabb"/><path d="M267.16,86.94a1.35,1.35,0,1,1-1.35-1.35A1.34,1.34,0,0,1,267.16,86.94Z" fill="#84aabb"/><path d="M261.05,70a1.35,1.35,0,1,1-1.34-1.35A1.34,1.34,0,0,1,261.05,70Z" fill="#84aabb"/><path d="M270.08,56.14a1.35,1.35,0,1,1-1.35-1.35A1.34,1.34,0,0,1,270.08,56.14Z" fill="#84aabb"/><path d="M259.2,42.34A1.35,1.35,0,1,1,257.85,41,1.35,1.35,0,0,1,259.2,42.34Z" fill="#84aabb"/><path d="M337.79,65.7a1.35,1.35,0,1,1-1.35-1.35A1.34,1.34,0,0,1,337.79,65.7Z" fill="#84aabb"/><path d="M343.63,73.67a1.35,1.35,0,1,1-1.35-1.35A1.35,1.35,0,0,1,343.63,73.67Z" fill="#84aabb"/><path d="M329,64.37A1.35,1.35,0,1,1,327.68,63,1.35,1.35,0,0,1,329,64.37Z" fill="#84aabb"/><path d="M336.46,90.4a1.35,1.35,0,1,1-1.35-1.35A1.34,1.34,0,0,1,336.46,90.4Z" fill="#84aabb"/><path d="M322.92,95.44a1.35,1.35,0,1,1-1.35-1.35A1.34,1.34,0,0,1,322.92,95.44Z" fill="#84aabb"/><path d="M326.37,109.78a1.35,1.35,0,1,1-1.35-1.35A1.35,1.35,0,0,1,326.37,109.78Z" fill="#84aabb"/><path d="M319.2,126.77a1.35,1.35,0,1,1-1.34-1.35A1.34,1.34,0,0,1,319.2,126.77Z" fill="#84aabb"/><path d="M312.57,118.28a1.35,1.35,0,1,1-1.35-1.35A1.35,1.35,0,0,1,312.57,118.28Z" fill="#84aabb"/><circle cx="302.72" cy="100.24" r="1.35" fill="#84aabb"/><path d="M287.61,103.69a1.35,1.35,0,1,1-1.35-1.35A1.35,1.35,0,0,1,287.61,103.69Z" fill="#84aabb"/><path d="M283.89,115.35a1.35,1.35,0,1,1-1.35-1.34A1.34,1.34,0,0,1,283.89,115.35Z" fill="#84aabb"/><path d="M290,119.6a1.35,1.35,0,1,1-1.35-1.35A1.35,1.35,0,0,1,290,119.6Z" fill="#84aabb"/><path d="M255,91.46a1.35,1.35,0,1,1-1.35-1.35A1.36,1.36,0,0,1,255,91.46Z" fill="#84aabb"/><circle cx="248.02" cy="103.96" r="1.35" fill="#84aabb"/><circle cx="236.6" cy="108.21" r="1.35" fill="#84aabb"/><circle cx="226.51" cy="87.74" r="1.35" fill="#84aabb"/><circle cx="221.2" cy="82.43" r="1.35" fill="#84aabb"/><path d="M234.24,75.53a1.35,1.35,0,1,1-1.35-1.35A1.36,1.36,0,0,1,234.24,75.53Z" fill="#84aabb"/><path d="M245.92,89.33A1.35,1.35,0,1,1,244.57,88,1.34,1.34,0,0,1,245.92,89.33Z" fill="#84aabb"/><circle cx="291.57" cy="74.2" r="1.35" fill="#84aabb"/><path d="M316,74.73a1.35,1.35,0,1,1-1.35-1.35A1.36,1.36,0,0,1,316,74.73Z" fill="#709cb1"/><path d="M299.56,56.94a1.35,1.35,0,1,1-1.35-1.35A1.36,1.36,0,0,1,299.56,56.94Z" fill="#84aabb"/><circle cx="287.32" cy="47.11" r="1.35" fill="#84aabb"/><path d="M317.89,127,311,118.24l14.24-8.89Zm-6.5-8.7,6.43,8.23L324.77,110Z" fill="#3d5f6f"/><path d="M345.19,137.51l-27.57-10.78-6.86-8.85.51.29,34,19.12Zm-27.42-11,25.91,10.13-32-18Z" fill="#3d5f6f"/><path d="M311,118.59l.16-.36,10.5-23.29,3.55,14.76-.07,0Zm10.59-22.92L311.49,118l13.4-8.38Z" fill="#3d5f6f"/><path d="M372.35,188.77l-.26-.16-27.33-17.83.48,0,23.09,2.31Zm-26.64-17.66L372,188.24l-3.82-14.88Z" fill="#3d5f6f"/><path d="M327.17,127.46a1.35,1.35,0,1,1-1.35-1.35A1.35,1.35,0,0,1,327.17,127.46Z" fill="#9dbbc9"/><path d="M331.05,134.76a1.35,1.35,0,1,1-1.35-1.35A1.35,1.35,0,0,1,331.05,134.76Z" fill="#9dbbc9"/><circle cx="336.69" cy="132.12" r="1.35" fill="#9dbbc9"/><path d="M338.24,118.37a1.35,1.35,0,1,1-1.35-1.35A1.36,1.36,0,0,1,338.24,118.37Z" fill="#9dbbc9"/><path d="M342.39,99.34A1.35,1.35,0,1,1,341,98,1.35,1.35,0,0,1,342.39,99.34Z" fill="#709cb1"/><path d="M341,107a1.35,1.35,0,1,1-1.35-1.35A1.35,1.35,0,0,1,341,107Z" fill="#9dbbc9"/><path d="M348.13,119.85a1.35,1.35,0,1,1-1.35-1.35A1.34,1.34,0,0,1,348.13,119.85Z" fill="#709cb1"/><path d="M349.84,110.53a1.35,1.35,0,1,1-1.35-1.35A1.35,1.35,0,0,1,349.84,110.53Z" fill="#9dbbc9"/><path d="M323.28,134.13a1.35,1.35,0,1,1-1.35-1.35A1.34,1.34,0,0,1,323.28,134.13Z" fill="#9dbbc9"/><path d="M308.84,121.09a1.35,1.35,0,1,1-1.35-1.35A1.36,1.36,0,0,1,308.84,121.09Z" fill="#9dbbc9"/><circle cx="316.34" cy="137.55" r="1.35" fill="#9dbbc9"/><circle cx="323.95" cy="140.81" r="1.35" fill="#9dbbc9"/><circle cx="342.75" cy="146.56" r="1.35" fill="#9dbbc9"/><path d="M351.4,143.3a1.35,1.35,0,1,1-1.35-1.35A1.36,1.36,0,0,1,351.4,143.3Z" fill="#9dbbc9"/><path d="M346.58,137.4a1.35,1.35,0,1,1-1.35-1.35A1.35,1.35,0,0,1,346.58,137.4Z" fill="#9dbbc9"/><circle cx="348.03" cy="127.92" r="1.35" fill="#9dbbc9"/><path d="M362.58,131.8a1.35,1.35,0,1,1-1.35-1.35A1.35,1.35,0,0,1,362.58,131.8Z" fill="#9dbbc9"/><path d="M379.82,138.79a1.35,1.35,0,1,1-1.35-1.35A1.35,1.35,0,0,1,379.82,138.79Z" fill="#9dbbc9"/><path d="M381.06,145.78a1.35,1.35,0,1,1-1.35-1.35A1.34,1.34,0,0,1,381.06,145.78Z" fill="#9dbbc9"/><path d="M369.26,143.61a1.35,1.35,0,1,1-1.35-1.35A1.36,1.36,0,0,1,369.26,143.61Z" fill="#709cb1"/><path d="M372.21,148.58a1.35,1.35,0,1,1-1.35-1.35A1.36,1.36,0,0,1,372.21,148.58Z" fill="#9dbbc9"/><path d="M367.7,160.07a1.35,1.35,0,1,1-1.35-1.35A1.34,1.34,0,0,1,367.7,160.07Z" fill="#9dbbc9"/><path d="M361.8,155.88a1.35,1.35,0,1,1-1.35-1.35A1.35,1.35,0,0,1,361.8,155.88Z" fill="#9dbbc9"/><circle cx="361.97" cy="149.08" r="1.35" fill="#9dbbc9"/><path d="M355.09,149.24a1.35,1.35,0,1,1-1.35-1.35A1.35,1.35,0,0,1,355.09,149.24Z" fill="#9dbbc9"/><path d="M350.62,154.79a1.35,1.35,0,1,1-1.35-1.35A1.35,1.35,0,0,1,350.62,154.79Z" fill="#709cb1"/><circle cx="339.33" cy="161" r="1.35" fill="#9dbbc9"/><path d="M330,165.66a1.35,1.35,0,1,1-1.35-1.35A1.34,1.34,0,0,1,330,165.66Z" fill="#9dbbc9"/><circle cx="327.37" cy="185.85" r="1.35" fill="#9dbbc9"/><circle cx="338.4" cy="185.7" r="1.35" fill="#9dbbc9"/><path d="M352,182.13a1.35,1.35,0,1,1-1.35-1.35A1.36,1.36,0,0,1,352,182.13Z" fill="#709cb1"/><path d="M355.12,189.27a1.35,1.35,0,1,1-1.35-1.35A1.34,1.34,0,0,1,355.12,189.27Z" fill="#9dbbc9"/><circle cx="362.8" cy="194.37" r="1.35" fill="#9dbbc9"/><path d="M373.46,188.16a1.35,1.35,0,1,1-1.34-1.35A1.34,1.34,0,0,1,373.46,188.16Z" fill="#9dbbc9"/><path d="M382.63,173.87a1.35,1.35,0,1,1-1.35-1.35A1.36,1.36,0,0,1,382.63,173.87Z" fill="#9dbbc9"/><circle cx="376.46" cy="162.53" r="1.35" fill="#9dbbc9"/><path d="M369.58,173.24a1.35,1.35,0,1,1-1.35-1.34A1.34,1.34,0,0,1,369.58,173.24Z" fill="#9dbbc9"/><path d="M358.54,164.89a1.35,1.35,0,1,1-1.35-1.35A1.35,1.35,0,0,1,358.54,164.89Z" fill="#9dbbc9"/><path d="M346.58,170.94a1.35,1.35,0,1,1-1.35-1.35A1.34,1.34,0,0,1,346.58,170.94Z" fill="#9dbbc9"/><path d="M332.91,175.29a1.35,1.35,0,1,1-1.35-1.35A1.34,1.34,0,0,1,332.91,175.29Z" fill="#709cb1"/><path d="M361,200.92a1.35,1.35,0,1,1-1.34-1.35A1.34,1.34,0,0,1,361,200.92Z" fill="#9dbbc9"/><path d="M384.06,206.74a1.35,1.35,0,1,1-1.35-1.34A1.34,1.34,0,0,1,384.06,206.74Z" fill="#9dbbc9"/><path d="M399,199.29a1.35,1.35,0,1,1-1.35-1.35A1.34,1.34,0,0,1,399,199.29Z" fill="#709cb1"/><path d="M407.05,192.92a1.35,1.35,0,1,1-1.35-1.35A1.34,1.34,0,0,1,407.05,192.92Z" fill="#9dbbc9"/><path d="M402.28,187.56a1.35,1.35,0,1,1-1.35-1.35A1.35,1.35,0,0,1,402.28,187.56Z" fill="#9dbbc9"/><path d="M349.75,78.65a1.35,1.35,0,1,1-1.35-1.35A1.34,1.34,0,0,1,349.75,78.65Z" fill="#9dbbc9"/><path d="M360.56,72a1.35,1.35,0,1,1-1.35-1.35A1.36,1.36,0,0,1,360.56,72Z" fill="#709cb1"/><path d="M361,56.94a1.35,1.35,0,1,1-1.34-1.35A1.34,1.34,0,0,1,361,56.94Z" fill="#9dbbc9"/><circle cx="350.98" cy="51.04" r="1.35" fill="#9dbbc9"/><circle cx="354.55" cy="67.04" r="1.35" fill="#9dbbc9"/><path d="M348.75,72.47a1.35,1.35,0,1,1-1.34-1.35A1.34,1.34,0,0,1,348.75,72.47Z" fill="#9dbbc9"/><path d="M319.2,126.77a1.35,1.35,0,1,1-1.34-1.35A1.34,1.34,0,0,1,319.2,126.77Z" fill="#3d5f6f"/><path d="M312.57,118.28a1.35,1.35,0,1,1-1.35-1.35A1.35,1.35,0,0,1,312.57,118.28Z" fill="#3d5f6f"/><path d="M346.58,137.4a1.35,1.35,0,1,1-1.35-1.35A1.35,1.35,0,0,1,346.58,137.4Z" fill="#3d5f6f"/><path d="M373.46,188.16a1.35,1.35,0,1,1-1.34-1.35A1.34,1.34,0,0,1,373.46,188.16Z" fill="#3d5f6f"/><path d="M370.42,173.24a2.19,2.19,0,1,1-2.19-2.18A2.19,2.19,0,0,1,370.42,173.24Z" fill="#3d5f6f"/><path d="M346.58,170.94a1.35,1.35,0,1,1-1.35-1.35A1.34,1.34,0,0,1,346.58,170.94Z" fill="#3d5f6f"/><path d="M352.13,27.47a1.35,1.35,0,1,1-1.35-1.35A1.35,1.35,0,0,1,352.13,27.47Z" fill="#3d5f6f"/><path d="M155.61,96.12a1.35,1.35,0,1,1-1.35-1.35A1.35,1.35,0,0,1,155.61,96.12Z" fill="#3d5f6f"/><path d="M204,187.76a1.72,1.72,0,1,1-1.72-1.72A1.72,1.72,0,0,1,204,187.76Z" fill="#3d5f6f"/><path d="M194.39,87.58a1.35,1.35,0,1,1-1.34-1.35A1.34,1.34,0,0,1,194.39,87.58Z" fill="#3d5f6f"/><circle cx="186.12" cy="103.04" r="1.35" fill="#3d5f6f"/><path d="M217,105.81a1.35,1.35,0,1,1-1.35-1.35A1.35,1.35,0,0,1,217,105.81Z" fill="#3d5f6f"/><path d="M207.87,125.89A1.9,1.9,0,1,1,206,124,1.9,1.9,0,0,1,207.87,125.89Z" fill="#3d5f6f"/><path d="M238,157.06a1.35,1.35,0,1,1-1.35-1.35A1.35,1.35,0,0,1,238,157.06Z" fill="#3d5f6f"/><path d="M168.1,66.7A2.08,2.08,0,1,1,166,64.63,2.08,2.08,0,0,1,168.1,66.7Z" fill="#3d5f6f"/><path d="M183.22,57.47a1.85,1.85,0,1,1-1.84-1.85A1.84,1.84,0,0,1,183.22,57.47Z" fill="#3d5f6f"/><path d="M196.78,62.08a1.35,1.35,0,1,1-1.35-1.35A1.36,1.36,0,0,1,196.78,62.08Z" fill="#3d5f6f"/><path d="M184.32,46.05A1.35,1.35,0,1,1,183,44.7,1.35,1.35,0,0,1,184.32,46.05Z" fill="#3d5f6f"/><path d="M202.11,42.34A1.35,1.35,0,1,1,200.76,41,1.35,1.35,0,0,1,202.11,42.34Z" fill="#3d5f6f"/><path d="M205.59,51.36a1.91,1.91,0,1,1-1.91-1.9A1.91,1.91,0,0,1,205.59,51.36Z" fill="#3d5f6f"/><path d="M222.15,61.19a1.74,1.74,0,1,1-1.74-1.74A1.74,1.74,0,0,1,222.15,61.19Z" fill="#3d5f6f"/><path d="M211.93,31.71a1.35,1.35,0,1,1-1.35-1.35A1.34,1.34,0,0,1,211.93,31.71Z" fill="#3d5f6f"/><circle cx="190.93" cy="33.04" r="1.35" fill="#3d5f6f"/><path d="M219.1,26.14a1.35,1.35,0,1,1-1.35-1.35A1.35,1.35,0,0,1,219.1,26.14Z" fill="#3d5f6f"/><circle cx="227.31" cy="40.74" r="2.39" fill="#3d5f6f"/><path d="M267.16,86.94a1.35,1.35,0,1,1-1.35-1.35A1.34,1.34,0,0,1,267.16,86.94Z" fill="#3d5f6f"/><path d="M259.2,42.34A1.35,1.35,0,1,1,257.85,41,1.35,1.35,0,0,1,259.2,42.34Z" fill="#3d5f6f"/><path d="M336.46,90.4a1.35,1.35,0,1,1-1.35-1.35A1.34,1.34,0,0,1,336.46,90.4Z" fill="#3d5f6f"/><path d="M322.92,95.44a1.35,1.35,0,1,1-1.35-1.35A1.34,1.34,0,0,1,322.92,95.44Z" fill="#3d5f6f"/><path d="M304.52,100.24a1.8,1.8,0,1,1-1.8-1.8A1.8,1.8,0,0,1,304.52,100.24Z" fill="#3d5f6f"/><path d="M221.17,47.47a.94.94,0,1,1-.94-.93A.94.94,0,0,1,221.17,47.47Z" fill="#3d5f6f"/><path d="M190.33,55.26a.94.94,0,1,1-.93-.93A.94.94,0,0,1,190.33,55.26Z" fill="#3d5f6f"/><path d="M176.09,41.36a2,2,0,1,1-2-2A2,2,0,0,1,176.09,41.36Z" fill="#3d5f6f"/><path d="M176.74,58a.94.94,0,1,1-.94-.94A.94.94,0,0,1,176.74,58Z" fill="#3d5f6f"/><path d="M190.54,40.74a.94.94,0,1,1-.93-.94A.94.94,0,0,1,190.54,40.74Z" fill="#3d5f6f"/><circle cx="209.92" cy="61.19" r="0.94" fill="#3d5f6f"/><path d="M236.21,55.08a.94.94,0,1,1-.93-.94A.94.94,0,0,1,236.21,55.08Z" fill="#3d5f6f"/><path d="M234.12,75.6a.94.94,0,1,1-.94-.93A.94.94,0,0,1,234.12,75.6Z" fill="#3d5f6f"/><path d="M175.53,84.53a.94.94,0,1,1-.94-.94A.94.94,0,0,1,175.53,84.53Z" fill="#3d5f6f"/><path d="M245.51,89.33a.94.94,0,1,1-.94-.93A.94.94,0,0,1,245.51,89.33Z" fill="#3d5f6f"/><circle cx="206.73" cy="150.59" r="0.94" fill="#3d5f6f"/><path d="M242.12,36a.74.74,0,1,1-.74-.73A.74.74,0,0,1,242.12,36Z" fill="#3d5f6f"/><path d="M269.47,56.14a.74.74,0,1,1-.74-.73A.74.74,0,0,1,269.47,56.14Z" fill="#3d5f6f"/><path d="M298.94,56.94a.74.74,0,1,1-.73-.74A.74.74,0,0,1,298.94,56.94Z" fill="#3d5f6f"/><path d="M337.18,65.7a.74.74,0,1,1-.74-.74A.74.74,0,0,1,337.18,65.7Z" fill="#3d5f6f"/><path d="M343,73.67a.74.74,0,1,1-.74-.74A.74.74,0,0,1,343,73.67Z" fill="#3d5f6f"/><path d="M325.89,109.51a.74.74,0,1,1-.73-.73A.74.74,0,0,1,325.89,109.51Z" fill="#3d5f6f"/><path d="M292.44,74.46a.74.74,0,1,1-.74-.73A.74.74,0,0,1,292.44,74.46Z" fill="#3d5f6f"/><path d="M254.4,91.45a.74.74,0,1,1-.74-.74A.74.74,0,0,1,254.4,91.45Z" fill="#3d5f6f"/><path d="M248.76,104a.74.74,0,1,1-.74-.74A.74.74,0,0,1,248.76,104Z" fill="#3d5f6f"/></svg>